<?xml version="1.0" encoding="utf-8"?>
<!-- Generator: Adobe Illustrator 19.0.0, SVG Export Plug-In . SVG Version: 6.00 Build 0)  -->
<svg version="1.1" id="layer" xmlns="http://www.w3.org/2000/svg" xmlns:xlink="http://www.w3.org/1999/xlink" x="0px" y="0px"
	 viewBox="-153 -46 652 652" style="enable-background:new -153 -46 652 652;" xml:space="preserve">
<style type="text/css">
	.st0{fill:none;}
</style>
<line class="st0" x1="172.1" y1="147" x2="172.1" y2="148.4"/>
<path d="M-104.7,191.7h-32.1v-1.4h2.4c3.3,0,4.5-1.1,4.5-4.7v-31.8c0-3.8-1.1-5.4-5.7-5.4h-1V147h21.2v1.3h-2.7
	c-4.7,0-5.9,0.5-5.9,5v33.1c0,1.9,0.8,2.7,2.9,2.7h10.6c4.2,0,5.5-1.7,10.1-7.9h1.3L-104.7,191.7z"/>
<path d="M-73.8,192.8c-14.1,0-25.9-9.1-25.9-22.5c0-14.3,11-24.4,26.3-24.4c13.6,0,25.3,9.3,25.3,22.2
	C-48.3,182.6-59.9,192.8-73.8,192.8 M-75.3,147.7c-12.6,0-17.7,11.8-17.7,20.4c0,13.4,9.1,22.9,20.7,22.9S-55,180.7-55,170.5
	C-55,157.1-63.5,147.7-75.3,147.7"/>
<path d="M-0.9,192.2l-37.2-38.9v30.8c0,5.2,1.1,6.2,7.3,6.2v1.4h-16.7v-1.4h0.3c4.5,0,5.9-1.5,5.9-4.8v-35.3c-1.8-1.2-3.9-1.8-6-1.8
	V147h11.3l33.8,35.3v-28.7c0-4.4-1.3-5.2-7-5.3V147H7.5v1.3c-5.4,0-6.6,0.9-6.6,3.7v40.1H-0.9z"/>
<path d="M17.7,154.2c0-4.7-1.2-5.8-5.5-5.8h-1.4V147c2.7-0.2,6.2-0.3,10.1-0.4s8.3-0.2,12.1-0.2c19,0,27.4,9.6,27.4,21.5
	c0,10.8-8.4,23.8-26.6,23.8H10.8v-1.4H12c3.9,0,5.7-1.1,5.7-5.2L17.7,154.2z M23.7,186.3c0,3,0.2,4,5.9,4c9.6,0,13.6-1.4,18.1-5.8
	c3.9-4.2,6.1-9.7,6-15.5c0-5.3-1.5-11.2-5.7-15.4c-3.3-3.3-8.4-5.8-18.5-5.8c-2.9,0-4.9,0.2-5.7,0.3V186.3z"/>
<path d="M90.7,192.8c-14.1,0-25.9-9.1-25.9-22.5c0-14.3,11-24.4,26.4-24.4c13.6,0,25.3,9.3,25.3,22.2
	C116.4,182.6,104.7,192.8,90.7,192.8 M89.3,147.7c-12.6,0-17.7,11.8-17.7,20.4c0,13.4,9.1,22.9,20.7,22.9s17.3-10.3,17.3-20.5
	C109.6,157.1,101.2,147.7,89.3,147.7"/>
<path d="M172.1,148.4c-5.4,0-6.6,0.9-6.6,3.7v40.1h-1.9l-37.2-38.9v30.8c0,5.2,1.1,6.2,7.3,6.2v1.4H117v-1.4h0.3
	c4.5,0,5.9-1.5,5.9-4.8v-35.3c-1.8-1.2-3.9-1.8-6-1.8V147h11.3l33.8,35.3v-28.7c0-4.4-1.3-5.2-7-5.3V147h16.8"/>
<path d="M-83.4,404.1v-1.2h-0.6c-3.8,0-5.1-1-5.1-5.6v-26.5c0-4,1-5.1,4.9-5.2v-1.2h-10.2l-15.3,32.2l-15.4-32.2h-9.6v1.1
	c3.1,0.2,3.8,1,3.9,3.4v29.6c0,3-1.3,4.3-5.2,4.3h-0.3v1.2h14.8v-1.2c-5.4,0-6.4-1-6.4-5.6V370l0,0l16.3,34h1.4l15.9-34l0,0v28.1
	c0,3.3-0.9,4.8-5,4.8h-2v1.2L-83.4,404.1z"/>
<path d="M-48.8,404.1l1-9.5h-1.2c-1.6,5.5-2.9,7.2-7.4,7.2h-9.8c-2.4,0-3.4-0.6-3.4-3.5v-13.6h10.8c2.6,0,3.8,0.5,4.4,5h1.2v-12.1
	h-1.2c-0.3,3.7-1.4,4.8-3.7,4.8h-11.5v-15.7h13.5c2.3,0,3.9,1.1,4.7,6.6h1.1l-0.5-8.9h-30.6v1.2h1.4c4.3,0,5.1,1.5,5.1,5.1v26.9
	c0,3.8-0.9,5.2-6,5.2h-0.5v1.2L-48.8,404.1z M-7.1,383.9c0.1,5.1-1.8,10.1-5.3,13.8c-4,4-7.5,5.2-16.1,5.2c-5,0-5.2-0.9-5.2-3.5v-34
	c0.8-0.1,2.5-0.3,5.1-0.3c8.9,0,13.5,2.2,16.4,5.2C-8.4,374-7.1,379.2-7.1,383.9 M-1.1,382.9c0-10.5-7.5-19.1-24.3-19.1
	c-3.3,0-7.2,0.1-10.7,0.2c-3.5,0.1-6.6,0.3-9,0.4v1.2h1.3c3.8,0,4.9,1,4.9,5.2v27.5c0,3.7-1.6,4.7-5,4.7h-1.1v1.2h20.4
	C-8.6,404.1-1.2,392.6-1.1,382.9 M1.7,404.1h15.5v-1.3c-4.4,0-5.4-1.3-5.4-5v-27.1c0-4.3,1.4-5.2,5.4-5.2v-1.2H1.7v1.2
	c3.6,0.2,4.8,1.1,4.8,4.6v27.1c0,4.3-0.8,5.3-4.8,5.5L1.7,404.1z M56.1,403.4c1.7-2.9,3.1-6.1,4.1-9.3h-1.2
	c-4.4,7.7-10.5,9.4-15.6,9.4c-9.7,0-18-8.5-18-20c0-10.7,6.6-18.4,17.3-18.4c7,0,12.5,3.9,14.5,9.8h1.2l-0.6-9.3h-1
	c-0.1,0.2-0.5,0.4-1.1,0.4c-2,0-5.4-2.6-13.5-2.6c-13.3,0-22.9,8.9-22.9,21.3c0,11.8,9.3,20.4,22.3,20.4
	C49.2,405.2,52,402.9,56.1,403.4 M62.6,404.1h15.5v-1.3c-4.4,0-5.4-1.3-5.4-5v-27.1c0-4.3,1.4-5.2,5.4-5.2v-1.2H62.6v1.2
	c3.6,0.2,4.8,1.1,4.8,4.6v27.1c0,4.3-0.8,5.3-4.8,5.5L62.6,404.1z M130.4,365.7v-1.3h-14.9v1.2c5.1,0.1,6.3,0.8,6.3,4.7v25.4
	l-30.1-31.3h-10v1.2c1.9,0,3.8,0.5,5.4,1.6v31.4c0,2.9-1.3,4.3-5.2,4.3h-0.3v1.2h14.8v-1.3c-5.4,0-6.4-1-6.4-5.6v-27.4l33.1,34.6
	h1.7v-35.6C124.5,366.4,125.6,365.6,130.4,365.7 M144.1,398.3v-13.6h10.8c2.6,0,3.8,0.5,4.4,5h1.2v-12.1h-1.2
	c-0.3,3.7-1.4,4.8-3.7,4.8h-11.4v-15.7h13.5c2.3,0,3.9,1.1,4.7,6.6h1.1l-0.5-8.9h-30.6v1.2h1.4c4.3,0,5.1,1.5,5.1,5.1v26.9
	c0,3.8-0.9,5.2-6,5.2H131v1.2h33.9l1-9.5h-1.1c-1.6,5.5-2.9,7.2-7.4,7.2h-9.9C145.2,401.9,144.1,401.3,144.1,398.3"/>
<path d="M-111,345.4c-2.7,2.2-6,3.4-9.5,3.4c-6.8,0-13.5-5.9-13.5-12.9c0-3.1,2.4-7.2,5.8-7.2C-126.3,328.7-122.3,335.7-111,345.4
	 M-94,349.9L-94,349.9c-1.1,0.1-2.2,0.2-3.3,0.1c-0.4,0-0.7-0.1-1.1-0.2c-0.3-0.1-0.5-0.2-0.7-0.4l-0.2-0.1
	c-0.3-0.1-0.5-0.3-0.8-0.5l-0.2-0.1l-0.8-0.5l-0.1-0.1l-0.8-0.7l-0.2-0.2l-0.8-0.7l-0.2-0.2l-0.6-0.6l-0.2-0.2l-0.6-0.6
	c-0.8-0.8-1.6-1.4-2.1-1.8c1.7-3,2.1-6.4,2.5-9.7c0.2-2,1.5-2,2.1-2.1v-0.9h-9.6v0.9c0.7,0.2,4.7-0.2,4.7,5.1c0,2.2-0.2,4.1-1.5,5.6
	c-11.4-10.6-19.2-18.9-19.2-22.4c0-2.3,1.8-4.2,4.2-4.3c0,0,0.1,0,0.1,0c3.9,0.2,7.3,2.8,8.6,6.4h0.9l-0.9-6.9h-0.9
	c-0.2,0.4-0.6,0.6-1,0.5c-1.6,0-2.6-0.9-5.5-1.2l0,0c-0.4,0-0.8-0.1-1.3-0.1c-3.8-0.2-7.1,2.8-7.3,6.6c0,0.2,0,0.3,0,0.5
	c0.1,2.2,1,4.3,2.4,6c-5.7,1.2-8.5,5.5-8.5,11.2c0,8.2,6.8,13.4,14.6,13.4c4.9,0,9.6-1.9,13-5.3c2.8,2.3,5.6,5.1,9.4,5.3h0.6
	c1.1-0.1,2.1-0.2,3.2-0.4c0.9-0.2,2-0.5,2-0.5L-94,349.9z"/>
<path d="M-135.5,234.9c1.3,5.7,5.8,9,10.7,9c4.3,0,8.8-2.5,8.8-7.5c0-9.2-20.4-12-20.4-23.1c0-5.3,4.8-9.2,11.3-9.2
	c5.3,0,6.4,1.6,8.6,1.6c0.5,0,0.9-0.2,1.1-0.6h1l1.1,8.1h-1.1c-1.5-4.4-5.6-7.4-10.2-7.5c-4.2,0-7.1,2.4-7.1,6
	c0,9,20.4,11.4,20.4,23.1c0,6.2-5.5,10.9-13,10.9c-3.5,0-7.9-1.7-8.8-1.7c-0.5,0-1,0.3-1.3,0.7h-1.1l-1.3-9.7H-135.5z"/>
<path d="M-70.1,215.4c-2.1-5.9-7.6-9.8-14.5-9.8c-10.6,0-17.2,7.7-17.2,18.4c0,11.5,8.3,20,17.9,20c5,0,11.2-1.7,15.5-9.4h1.2
	c-1,3.2-2.4,6.4-4.1,9.3c-4.1-0.6-6.9,1.7-14.4,1.7c-12.9,0-22.2-8.5-22.2-20.3c0-12.4,9.5-21.2,22.8-21.2c8,0,11.5,2.5,13.4,2.5
	c0.7,0,1-0.2,1.1-0.4h1l0.6,9.2H-70.1z"/>
<path d="M-55.1,225.7v12.1c0,4.1,0.8,5.6,5.1,5.6h0.2v1.2h-16v-1.2h0.4c3.8,0,5-1,5-4.6v-28c0-3.3-1.1-4.3-4.6-4.5V205h15.1v1.2
	c-4.5,0-5.3,1.2-5.3,6.1v11.1h24.9v-12.5c0-3.4-1.1-4.6-5-4.6h-1.2V205h16.3v1.2c-3.8,0.1-4.8,1.3-4.8,5.2v26.4
	c0,4.5,1.3,5.5,5.1,5.5h0.6v1.2h-18v-1.2h2c4.1,0,5-1.5,5-4.8v-12.8H-55.1z"/>
<path d="M5.3,245.6c-12.5,0-23-8-23-19.9c0-12.7,9.7-21.6,23.3-21.6c12.1,0,22.3,8.2,22.3,19.7C28,236.6,17.7,245.6,5.3,245.6
	 M4,205.6c-11.2,0-15.6,10.4-15.6,18.1c0,11.9,8.1,20.3,18.3,20.3s15.4-9.2,15.4-18.2C22.1,214,14.6,205.6,4,205.6"/>
<path d="M55,245.6c-12.5,0-23-8-23-19.9c0-12.7,9.7-21.6,23.3-21.6c12.1,0,22.3,8.2,22.3,19.7C77.6,236.6,67.3,245.6,55,245.6
	 M53.6,205.6c-11.2,0-15.6,10.4-15.6,18.1c0,11.9,8.1,20.3,18.3,20.3s15.4-9.2,15.4-18.2C71.6,214,64.2,205.6,53.6,205.6"/>
<path d="M107.1,244.6H78.6v-1.2h2.1c2.9,0,4-1,4-4.2V211c0-3.4-1-4.8-5-4.8h-0.9V205h18.8v1.2h-2.3c-4.1,0-5.2,0.4-5.2,4.4v29.3
	c0,1.7,0.7,2.3,2.5,2.3h9.3c3.8,0,4.9-1.5,8.9-7h1.1L107.1,244.6z"/>
<path d="M133.5,213.3c1.8,0,5.8,2.5,5.8,9.3c0,12.1-12,17.4-15,17.4c-3,0-5.7-4.8-5.7-10C118.6,219.7,129.7,213.3,133.5,213.3
	 M130.2,215.7c-4,0-7.6,7.7-7.6,14.1c0,5.3,2.3,7.9,4.4,7.9c5.1,0,8.1-8.3,8.1-14.1C135.1,219.1,132.9,215.7,130.2,215.7"/>
<path d="M142.5,216.8l0.2-1.1c1.6-0.2,3.1-0.4,4.6-0.7c1-4.5,2.9-9.3,6.4-12.4c2.1-1.8,4.7-2.9,7.5-3c2.5,0,4.5,1.2,4.5,2.7
	c0,0.9-0.8,1.7-1.7,1.6c0,0,0,0,0,0c-2.1,0-3.8-2.3-5.7-2.3c-2.5,0-4.5,2.4-5.4,6.1l-1.7,7.2h5.5l-0.6,1.8h-5.2l-3.3,16.2
	c-2.5,12.4-9.7,16.8-15.7,16.8c-2.7,0-4.9-1.2-4.9-2.5c0.2-1,1.1-1.7,2.1-1.7c2.3,0,3.6,2.4,6,2.4c1.4,0,2.8-0.6,3.9-1.6
	c3.2-2.8,4.4-12.2,4.6-13.6l3.3-16L142.5,216.8z"/>
<path d="M-124.9,280.9v13.4c0,4.6,0.9,6.2,5.6,6.2h0.2v1.3h-17.7v-1.3h0.4c4.2,0,5.6-1.1,5.6-5.1v-31c0-3.7-1.2-4.7-5.1-5v-1.4h16.8
	v1.3c-5,0-5.8,1.3-5.8,6.8v12.3h27.7v-13.9c0-3.7-1.2-5.1-5.6-5.1h-1.4v-1.4h18.1v1.3c-4.2,0.1-5.4,1.4-5.4,5.8v29.3
	c0,5,1.4,6.1,5.6,6.1h0.7v1.3h-20v-1.3h2.2c4.6,0,5.6-1.6,5.6-5.3v-14.3L-124.9,280.9z"/>
<path d="M-47,264.4c2.3-3.9,0.9-5.1-3.6-5.1v-1.3h15.9v1.3c-4.8,0.4-6.8,2.3-8.8,5.6l-11.7,19.8v10.7c0,3.7,1.3,5.2,5.6,5.2h0.9v1.3
	H-68v-1.3h1.3c4.4,0,5.6-1.6,5.6-5.1v-10l-12.6-19.5c-3.5-5.4-5.1-6.4-9.7-6.6v-1.3h18.7v1.3c-5.5,0-5.8,1.3-3.7,4.6l11.3,17.4
	L-47,264.4z"/>
<path d="M2.9,298.5c-7,3.6-15.9,4.4-18.9,4.4c-15.4,0.1-22.6-11.9-22.6-22.2c0-10.6,7.4-23.8,24.6-23.8c7.5,0,12.6,2.4,14,2.4
	c0.6,0,1.2-0.1,1.6-0.5h1v11.4H1.2c-1.9-8.8-7.9-11.6-14.5-11.6c-12.4,0-18.8,10.3-18.8,21.6c0,14.5,10.2,20.9,18.3,20.9
	c3.8,0,7.5-0.9,10.8-2.7v-8.9c0-4-1.4-5.4-5.6-5.4h-2.6V283h19v1.3c-3.5,0.2-4.9,1.4-4.9,4.4L2.9,298.5z"/>
<path d="M26.8,301.8H9.7v-1.3c4.4-0.2,5.3-1.3,5.3-6.1v-30c0-3.8-1.3-4.9-5.3-5.1v-1.3h17.1v1.3c-4.4,0-6,1-6,5.7v29.9
	c0,4.2,1.1,5.6,6,5.6V301.8z"/>
<path d="M62.4,285.9h-1.3c-0.6-5-1.9-5.6-4.8-5.6H44.4v15c0,3.3,1.2,3.9,3.8,3.9h10.8c4.9,0,6.4-1.9,8.2-8h1.3l-1.1,10.5H30v-1.3h2
	c5.6,0,6.6-1.5,6.6-5.8v-29.8c0-4-0.9-5.6-5.6-5.6h-1.6v-1.3h33.8l0.6,9.8h-1.3c-0.9-6-2.7-7.3-5.2-7.3H44.4v17.3H57
	c2.5,0,3.7-1.2,4.1-5.3h1.3L62.4,285.9z"/>
<path d="M117.4,302.3l-36.5-38.2v30.3c0,5.1,1.1,6.1,7.1,6.1v1.3H71.6v-1.3h0.3c4.4,0,5.8-1.5,5.8-4.7V261c-1.7-1.2-3.8-1.8-5.9-1.8
	v-1.3h11.1l33.2,34.6v-28c0-4.3-1.3-5.1-6.9-5.2v-1.4h16.5v1.3c-5.3,0-6.4,0.9-6.4,3.7v39.3H117.4z"/>
<path d="M159.9,285.9h-1.3c-0.6-5-1.9-5.6-4.8-5.6h-11.9v15c0,3.3,1.2,3.9,3.8,3.9h10.8c4.9,0,6.4-1.9,8.2-8h1.3l-1.1,10.5h-37.5
	v-1.3h2c5.6,0,6.6-1.5,6.6-5.8v-29.8c0-4-0.9-5.6-5.6-5.6h-1.6v-1.3h33.9l0.6,9.8h-1.3c-0.9-6-2.7-7.3-5.2-7.3h-14.8v17.3h12.6
	c2.5,0,3.7-1.2,4.1-5.3h1.3V285.9z"/>
<path d="M-79.1,345.8c0,3.1,1,4.2,4.6,4.2h2.2v1.1h-18.3V350h2.2c3.5,0,4.6-1.1,4.6-4.2v-28.5H-94c-2.3,0-3.3,1.3-4.2,6.4h-1
	l0.9-9.3h1.1c0.1,0.3,0.3,0.6,0.6,0.7c0.4,0.1,0.8,0.2,1.2,0.2h27.8c0.8,0,1.7-0.2,1.8-0.9h1.1l0.9,9.3h-1.1
	c-0.9-5.1-1.9-6.4-4.2-6.4h-10V345.8z"/>
<path d="M-51.6,345.7c0,3.5,1.4,4.3,4.6,4.3h1.3v1.1H-62V350h1c3.4,0,4.6-0.9,4.6-4.8v-24.3c0-3.6-1-4.6-4.3-4.6H-62v-1.1
	c1.4,0,4.9-0.2,7.3-0.3c2.4-0.1,3.5-0.2,7.3-0.2c10.7,0,15.5,4.4,15.5,10.3c0,4.3-2.9,8-7.7,9.4c2.3,1.9,4.5,3.9,6.6,6l4.6,4.6
	c3.4,3.4,6.9,5.5,11.4,5.8v1c-10.1,0.5-12.7-1.7-17.8-6.9l-3.8-3.8c-1.8-1.9-3.8-3.6-5.9-5.2c-1.4,0.1-2.4,0.1-3.9,0.1
	c-1.3,0-2,0-2.9-0.1L-51.6,345.7z M-51.6,334.8c1.2,0.1,2.4,0.2,3.6,0.1c6.4,0,10.6-2.7,10.6-9.6c0-5.4-2.4-9.5-11.3-9.5
	c-1,0-1.9,0-2.9,0.1V334.8z"/>
<path d="M-3.7,352c-11.3,0-20.9-7.3-20.9-18.1c0-11.5,8.8-19.6,21.1-19.6c10.9,0,20.3,7.4,20.3,17.8C16.9,343.8,7.5,352-3.7,352
	 M-4.9,315.8c-10.2,0-14.2,9.5-14.2,16.4c0,10.8,7.3,18.4,16.6,18.4s13.9-8.3,13.9-16.5C11.4,323.4,4.6,315.8-4.9,315.8"/>
<path d="M26.8,345.6c0,3.2,1,4.4,4.6,4.4h1.9v1.1h-16V350h0.8c3,0,3.9-0.6,3.9-3.3v-27.3c0-2.1-0.7-3.1-2.7-3.1h-2.9v-1.1
	c1.6-0.1,4.4-0.2,7.3-0.3s5.6-0.2,7.2-0.2c12.1,0,14.8,5.8,14.8,10.2c0,6.8-5.4,11-14,11c-1.6,0-3.3-0.1-4.9-0.5V345.6z M26.8,334.4
	c1,0.3,2.1,0.4,3.1,0.5c6.3,0,10.3-4.3,10.3-10.1c0-4.5-1.8-8.9-9.5-8.9c-1.3,0-2.7,0-4,0.2L26.8,334.4z"/>
<path d="M62.2,351.1h-14V350c3.6-0.2,4.3-1.1,4.3-5v-24.6c0-3.1-1.1-4-4.3-4.2v-1.1h14v1.1c-3.6,0-4.9,0.8-4.9,4.7v24.5
	c0,3.4,0.9,4.6,4.9,4.6V351.1z"/>
<path d="M97.9,324.7c-2-5.5-7.3-9.1-13.2-8.9c-9.6,0-15.6,7-15.6,16.7c0,10.4,7.5,18.1,16.3,18.1c4.6,0,10.2-1.6,14.1-8.5h1.1
	c-0.9,2.9-2.1,5.8-3.7,8.4c-3.7-0.5-6.2,1.6-13,1.6c-11.7,0-20.1-7.7-20.1-18.4c0-11.2,8.7-19.3,20.7-19.3c7.3,0,10.4,2.3,12.2,2.3
	c0.6,0,0.9-0.2,1-0.3h0.9l0.5,8.4L97.9,324.7z"/>
<path d="M111.4,335.2l-3.3,9.1c-0.5,1.2-0.9,2.4-1.2,3.6c0,1.6,1.5,2.1,4.7,2.1h0.9v1.1H99.2V350c3.8-0.1,4.4-0.7,6.2-5.7l10.5-28.7
	l-0.5-1.3h5l12.1,32c1.1,3.1,2.4,3.6,5.2,3.6v1.1h-15.9V350h1.5c3.3,0,4.5-0.3,4.5-2c-0.1-0.8-0.3-1.6-0.6-2.4l-3.9-10.5
	L111.4,335.2z M117.3,319.2l-4.9,13.4h10L117.3,319.2z"/>
<path d="M164.4,351.1h-25.8V350h1.9c2.7,0,3.6-0.9,3.6-3.8v-25.6c0-3.1-0.9-4.3-4.6-4.3h-0.8v-1.1h17v1.1h-2.1c-3.7,0-4.7,0.4-4.7,4
	v26.6c0,1.6,0.6,2.1,2.3,2.1h8.4c3.4,0,4.4-1.3,8.1-6.3h1L164.4,351.1z"/>
<path d="M277.2,185.2c0,0,5.2-11.1,15.3-17c3.2-1.8,6.3-3.6,10.1-3.7c9.4-0.2,14.5,3.2,17.5,8.2c0.3,0.6,0.6,1.1,0.9,1.7
	c0.3,1.1,0.4,2.2,0.4,3.3c-0.1,0.5-0.3,0.9-0.6,0.9c-0.5,0.2-1.2-0.2-1.7,0.4c-0.3,0.5-0.3,1.2,0.1,1.7c0.4,0.9,0.4,1.9-0.1,2.7
	c-0.2,0.5-0.4,0.9-0.7,1.4c-1.3,2.2-2.8,4.3-3.8,6.4c-0.9,2-1.6,4-2.2,6.1c-0.5,2.6-0.9,5.3-1,8c0,0.7,0,2.2,0.2,3.4
	c0.1,0.8,0.2,1.6,0.2,1.8c0,0.7,0,1.1-0.8,1.4c-0.9,0.1-1.9,0.1-2.8,0c-1.7,0-4,0-5.9-0.1c-2.4-0.2-4.4-0.4-4.7-0.5
	c-0.7-0.1-0.7-0.3-1-0.8s0.2-1.6-0.3-1.6c-0.4,0-1.3,1-1.8,1.5c-0.5,0.5-1.6,0.8-1.3,1.1c1,1,2.7,3.3,2.9,2.9c0.2-0.4-0.1-1.6,1.1-2
	c0.5-0.2,4.5,0.2,8.2,0.3c1.5,0.2,3,0.3,4.6,0.3c0.7,0,1.3,0.1,1.9,0.1c2.6-0.3,5.2-0.1,7.7,0.6c0.8,0.2,1.5,0.5,2.2,0.7l0,0
	c0.8,0.2,1.6,0.3,2.5,0.3c1,0,2,0,2.9-0.1c1.7-0.2,3.8-0.8,5.3-1.1c3.7-0.8,5.2-1.3,5.7-1.3c0.5-0.1,1.6-0.3,3-0.4
	c1.6-0.1,3.4-0.2,4.5-0.2s5,0.3,8.1,0.5c0.8,0.1,1.6,0.2,2.2,0.3c0.8,0,1.6-0.1,2.4-0.2c1.5-0.3,2.8-1,3.9-2
	c0.5-0.4,0.9-0.8,1.1-0.9c0.5-0.5,2.9-1.5,3-2c0-0.1,0-0.2-0.3-0.2c-0.7,0-1.4,0-2.1,0c-1,0.1-2,0.2-2.9,0.4
	c-0.9,0.1-5.5,1.2-7.9,1.7c-0.4,0.1-0.8,0-1.2,0.1c-1.4,0.3-2.6,0.4-3.7,0.6c-0.8,0.2-1.7,0.3-2.5,0.3c-1.4,0.1-3.2,0-4.4,0
	c-1.9,0-3.9-0.2-4.8-0.3c-1.5-0.2-3-0.4-4.5-0.8c-0.1,0-0.1,0-0.2,0l0,0c-1.1,0-2.1,0.2-3.1,0.7c-0.4,0.2-0.9,0.4-1.2,0.7l0,0
	c-0.2,0.2-0.4,0.4-0.6,0.7l0,0l-0.1,0.1l0,0c-0.2,0.3-0.4,0.7-0.6,1c-0.5,0.6-1.3,0.1-1.9-0.1c-0.1,0-0.2-0.1-0.2-0.2
	c-0.2-0.2-0.3-0.5-0.4-0.8c-0.1-0.5-0.1-0.9,0-1.4c0.3-0.7,0.6-1.3,1.1-1.8c0.1-0.1,0.1-0.2,0.2-0.3c1.4-1,3-1.7,4.6-2
	c0.6-0.1,1.3-0.3,1.9-0.5c0.1,0,0.2-0.1,0.2-0.1c0.3-0.1,0.4-0.3,0.4-0.8c-0.1-2.3-0.3-4.6-0.4-6.7c-0.1-3.2-0.2-6.2-0.2-8.8
	c0-2.4,0.1-4.6,0-6.6c-0.1-2.9,0.1-5.7,0.5-8.6c2.6-7.1,9.9-8.6,15.4-8.4c2.4,0.2,4.8,0.7,7.1,1.6c13.3,4.6,15.1,22.1,15.7,19.6
	c4.2-15.6-4.2-24.5-14.8-26.8c-9.4-2-19.1,1.2-25.4,8.4c-0.6,1.1-3.6-0.2-2-2.1c6.1-7.7,13.5-8.6,19.1-9.8c4.1-0.8,14,1.2,19.3,4
	c4.5,2.4,6.7,5.7,6.5,4.8c-0.7-2.7-3.5-14.2-19.4-15.4c-8.1-0.6-15.2,2.5-20.5,6.5c-2.4,1.9-4.7,4.1-6.7,6.5
	c-2.2,2.5-3.2,4.7-3.8,4.8c-1.3,0.1-3.9-4.1-9.8-6.9c-3-1.5-6.3-2.5-9.7-2.9c-4.2-0.5-8.4,0-12.4,1.5c-2.3,0.8-4.4,2.1-6.3,3.6
	c-4.8,4.3-6.9,11-7.4,15.7C276.9,181,276.9,183.1,277.2,185.2z M322.1,193.5c0,1-0.1,2.2-0.2,3.6c-0.1,5.2-0.3,11.9-0.7,14.2
	c0,0.3-0.2,0.5-0.4,0.6c-0.1,0.1-0.3,0.2-0.5,0.3c-0.8,0-1.6,0-2.3,0c-0.4-0.1-0.9-0.1-1.4-0.1c-0.6,0-1.2,0-1.8-0.1
	c-0.5-0.2-0.9-0.6-1.1-1.1c-0.3-0.9-0.4-1.7-0.5-2.6c-0.1-1-0.1-2.1-0.2-3c-0.1-0.7,0-1.3,0.1-2c0.2-1.3,1.1-7.3,1.7-8.6
	c0.4-0.9,0.8-1.7,1.2-2.6c0.5-0.8,0.9-1.5,1.6-2.6c0.7-1.1,1.3-2.2,1.8-3.1c0.1-0.2,0.2-0.4,0.3-0.5c0.2-0.3,0.3-0.2,0.4-0.2
	c0.4,0,0.5,0.2,0.8,0.8c0.5,1.3,0.9,2.6,1.2,4C322.1,190.6,322.2,191.8,322.1,193.5z M323,181.1c0.4,0.2,0.8,1.5,1,1.9
	c0.2,0.4,6.9,19.4,7,19.9c0.2,0.6-0.2,1.3-0.8,1.5c-0.7,0.3-1.5,0.1-1.8-0.6c0,0,0,0,0,0c-0.2-0.3-2.5-7.3-4.6-13.4
	c-1.4-4.1-2.7-7.5-2.8-7.9c-0.1-0.6,0.2-1.1,0.7-1.4C322.1,180.8,322.6,180.9,323,181.1z"/>
<path d="M333.8,308.6c-0.3-0.1-1.1,0.1-2.2,0.5c-0.7,0.2-1.5,0.3-2.2,0.5c-1.4,0.5-2.8,0.8-4.3,0.9c-2-0.1-1.7-1.2-3.2-1.8
	c-1.3-0.3-2.7-0.3-4,0.2l-0.4,0.6c0.7,2.8,1.3,5.7,1.6,8.6c0.2,2,0.3,4.1,0.2,6.1c0,0.4-0.1,1.1-0.2,2.3c-0.1,1.2-0.1,2.5-0.2,3.3
	c-0.1,0.8-0.3,1.9-0.4,2.8c-0.1,0.9-0.3,1.7-0.5,2.5c-0.3,1.6-0.7,3.2-1.3,4.7c-1.8,4.5-4.5,8.3-6.3,12.9c-0.7,1.8-1.6,3.6-2.5,5.3
	c-0.6,1.2-1.3,2.2-2.2,3.2c-0.9,0.9-1.9,1.6-2.7,2.3c-0.5,0.6-1,1.2-1.4,1.9c-0.7,1.3-1.5,2.5-2.5,3.7c-0.2,0.3-0.5,0.5-0.7,0.6
	l11.6,0.2c-0.2-0.1-0.4-0.3-0.5-0.5c-0.5-1.4-0.8-2.8-1-4.3c0-0.6,0.2-1.2,0.5-1.8c0.5-0.7,1-1.3,1.7-1.8c0.7-0.4,1.3-0.8,2-1.2
	c0.6-0.4,1-0.2,1.4-0.7c0.4-0.5,0.3-1,0.4-1.5c0.8-2.5,2-5.3,3.1-7.8c1.4-3.4,3.1-6.7,5.1-9.8c1.1-1.6,2.7-2.8,3-4.1
	c0.2-1.2,0.2-2.4,0-3.5c0-1.1,0.1-2.1,0.1-3.1c0.2-2.7,0.8-5.4,1.8-8c0.4-1,0.7-2.1,1.1-3.1c0.4-1,1.7-3.5,2.9-5.6
	C332.9,310.8,334.1,308.8,333.8,308.6z"/>
<path d="M329.7,355.8c0.1-1.4,0.1-2.8,0.1-4.2c0-1.1,0.2-2.2,0.3-3.4c0.2-3.3,0.4-6.7,0.4-10l-1.5,0.9c-0.6,0.7-3,3.2-3.6,4.1
	c-1.1,1.8-2.1,3.6-3.2,5.4c-0.7,1.2-1.2,2.4-1.7,3.7c-0.6,1.4-0.9,2.4-1.4,3.8c-0.5,1.2-0.9,2.4-1.1,3.7c-0.2,1.9-0.2,3.9-0.1,5.8
	c0.1,0.5,0.1,0.6,0.6,0.8c2.6,0.1,9.1,0.1,9.1,0.1c1.6,0,1.6-0.5,1.5-1.9c0-1.7,0.1-3.2,0.2-4.9
	C329.5,358.5,329.7,357.1,329.7,355.8z"/>
<path d="M343.3,344.8c0.3-0.6,0.5-1.2,0.8-1.7c0.8-1.3,1.6-2.5,2.5-3.7c1-1.4,2.2-2.8,3-3.8c0.4-0.5,0.9-1,0.7-1.5s-0.8-1-1.5-1.6
	c-1.1-1.1-2.5-2.3-3-2.9c-1.2-1.4-2.2-2.9-3.1-4.5c-2.1-2.9-3.9-6-5.2-9.2c-0.1-0.2-0.1-0.3-0.2-0.3s-0.1,0-0.2,0.5
	c-0.3,1.6-0.1,3.3,0.4,4.8c0.1,0.3,0.1,0.8,0.2,1.2c0.3,0.9,0.7,1.9,1.2,2.9c1.1,2.8,2.6,5.9,3.3,7.8c0.7,1.6,0.5,3.3-0.3,4.8
	c-1.3,2.4-2.6,5.4-4,8c-1.1,1.9-2.2,3.5-2.3,5.2c-0.1,1.6,0.6,3.3,1.7,5.4c0.2,0.4,0.3,0.8,0.6,1.3c0.4,0.7,0.8,1.5,1.1,2.3
	c0.2,0.5,0.5,0.9,0.8,1.3c1.1,1.6,2.2,3.1,2.9,4.2c0.3,0.5,0.7,0.9,0.8,1.2c0.1,0.1,0,0.1,0,0.1c0.9,0,1.5-1.2,2.4-2.5
	c0.5-0.7,1.7-2,2.4-3c0.3-0.3,0.4-0.6,0.3-0.9c-0.4-1-3.7-0.8-4.6-1.4c-0.4-0.2-0.7-0.3-1-0.5c-1.4-1-1.9-2.2-1.6-3.2
	c0.2-0.7,1.5-1,1.7-1.7c0.3-1.3-1.5-1.7-1.4-4.1C341.9,347.7,342.4,346.2,343.3,344.8z"/>
<path d="M282.9,251c0.5,0.3,1,0.5,1.6,0.7c0.8,0.3,1.7,0.5,2.5,0.8c0.5,0.2,1,0.3,1.5,0.4c1.1,0.2,2.2,0.3,3.3,0.4
	c1.5,0.1,5.2,0.6,5.3-0.1c0.2-0.6-1.1-1.6-1.4-2.4c-0.2-0.3-0.5-0.6-0.8-0.7c-0.6-0.1-1.2-0.2-1.8-0.2c-0.5,0-1-0.1-1.4-0.2
	c-0.8-0.1-1.5-0.1-2.3-0.2c-0.5,0-0.8-0.2-1.3-0.3c-1-0.2-1.9-0.4-2.9-0.7c-0.3-0.1-0.6-0.1-0.9-0.2l-1-0.4
	c-0.7-0.3-1.5-0.6-1.8-0.2C281,248.6,282,250.6,282.9,251z"/>
<path d="M266.8,224.2c-0.2-0.1-0.4-0.2-0.6-0.3c-0.7-0.5-1.1-1.5-1.7-2.1c-0.7-0.7-1.5-1.3-2.4-1.8c-0.9-0.4-1.9-0.9-2.9-1.3
	c-0.5-0.1-0.9-0.3-1.3-0.4s-1-0.1-1.5-0.2c-0.5-0.1-0.9-0.2-1.4-0.2c-0.8,0-1.5,0.1-2.3,0.3c-0.2,0-0.4,0-0.6,0.1
	c-0.9,0.2-1.9,0.4-2.8,0.7c-0.6,0.3-1.2,0.5-1.8,0.6c-0.6,0-1.1-0.1-1.7-0.2c-0.3-0.1-0.7-0.2-1.1-0.3c-0.7-0.1-1.5-0.1-2.2,0
	c-0.7,0-1.4,0.1-2.1,0.1c-1.7,0.3-3.4,1-4.9,1.9c-0.3,0.2-2.4,2-2.7,2.1c-0.9,0.2-2,0.1-3.3,0.4c-0.6,0.2-1.2,0.4-1.8,0.5
	c-1.1,0.2-2.1,0.6-3,1.2c-0.7,0.5-1.4,1-2.1,1.6c-0.3,0.2-0.6,0.5-0.9,0.7c-0.7,0.6-2.5,2.9-2.8,3.1c-1.2,0.4-2.4,0.7-3.7,0.9
	c-0.7,0.1-1.3,0.4-2,0.6c-0.4,0.1-0.7,0.2-1.1,0.3c-0.3,0.2-1,0.5-1,0.7c0.1,0.2,0.3,0.4,0.5,0.5c0.2,0.2,0.7,0.5,1,0.7
	c0.5,0.5,0.9,1,1.5,1.1c0.8,0,1.6-0.1,2.3-0.3c0.7-0.1,1.4-0.3,2-0.6c0.3-0.2,0.5-0.8,0.8-1.1c0.5-0.5,0.9-1,1.4-1.5
	c0.5-0.5,1.2-1,1.9-1.3c0.7-0.4,1.4-0.7,2.2-0.9c0.4-0.1,0.8-0.2,1.2-0.3c0.5-0.5,1-1,1.5-1.6c0.6-0.6,1.3-1.1,2.1-1.6
	c2.1-1.5,4.5-2.4,7.1-2.5c1,0,2,0.1,2.9,0.2c0.4,0.1,0.8,0.1,1.2,0c0.5-0.2,1.3-0.9,2.1-1.3c1.6-0.7,3.3-1.1,5.1-1.2
	c1,0,1.9,0,2.9,0.2c0.6,0.1,1.2,0.1,1.8,0.3c1.2,0.3,2.3,0.7,3.4,1.2c0.5,0.3,1,0.6,1.5,1c0.2,0.2,0.6,0.4,0.9,0.5
	c0.4,0,0.8,0,1.2,0c1.6-0.2,3.2,0.1,4.7,0.8c1.6,0.9,2.8,2.1,3.7,3.7c0.2,0.5,1.4,1,2.6,1.7c0.7,0.4,1.3,0.8,1.9,1.4
	c0.9,0.8,1.7,1.8,2.3,2.9c1,1.7,1.8,3.4,2.3,5.3c0.6,1.6,0.1,4.9,0.1,7.1c0,3,3.7,4.3,3.2,3.8s-1.9-3.2-0.6-4.3
	c1.3-1.1,0.3-5.6,0.3-5.6c-0.5-2-1.1-4.2-1.5-5.6c-0.1-0.3-0.4-0.9-0.4-1.2c-0.5-1.3-1.1-2.6-1.9-3.8c-0.7-1.1-1.6-2-2.5-3
	c-1.6-1.3-3.3-2.4-5.2-3.2C268.2,224.5,267.4,224.4,266.8,224.2z"/>
<path d="M296.2,254.8c-1.4,0-2.8,0-4-0.1c-1.3-0.1-3.3-0.5-5-0.8c-1.3-0.3-2.1-0.7-2.7-0.3c-0.7,0.5,1.9,3.2,2.9,3.6
	c2.3,1.2,4.9,0.8,7.3,1c1.5,0.2,3.1,0.2,4.7,0.1c1.1-0.2,0.7-2.8-1-3.3C297.7,254.8,297,254.7,296.2,254.8z"/>
<path d="M269.1,322.4c0.4,1.1,0.7,2.3,1.1,3.7s0.8,2.9,1.3,4.3c0.8,2,1.4,4,1.9,6c0.7,3.3,1,3,1.5,6.3c0-0.2,0.7,2.7,1,3.4
	c0.2,1.2,0.7,3.2,0.9,5c0.1,0.9,0.1,1.9,0,2.9c-0.1,0.7-0.3,1.3-0.5,2c-0.4,1.7-1,3.3-1.9,4.9c-0.5,0.9-1.2,1.7-1.7,2.7
	c-0.4,0.7-0.8,1.2-1.2,1.9c-0.3,0.5-0.8,1.6-1.4,2.5c-0.2,0.5-0.5,0.9-0.9,1.3l11.7,0.2l-0.2-0.5c-0.3-0.7-0.6-1.4-0.8-2.2
	c-0.2-1.1-0.6-1.9-0.8-2.6c-0.3-1.2-0.2-2.4,0.3-3.5c0.2-0.4,0.5-0.8,0.8-1.2c0.3-0.5,0.7-1.1,1-1.6c0.5-0.5,0.9-1,1.2-1.6
	c0.2-1,0.2-2,0-3c0-0.3-0.1-0.5-0.1-0.8c-0.2-1.7-0.5-3.4-0.9-5.6c-0.3-1.3-0.4-4.2-0.5-5.4c-0.3-2.7-0.4-5.5-0.7-8.5
	c0-0.3,0-1.4,0-1.8c-0.3-4.2-0.1-8.4,0.5-12.5c0.3-1.4,0.6-2.8,1.1-4.2c0.2-0.8,0.4-1.6,0.7-2.4c0.1-0.3,0.3-0.6,0.5-1
	c0.2-0.6,0.3-1.2,0.5-1.8c0.9-2.2,1.9-4.3,3-6.4c0.4-0.7,0.9-3.4,2.1-4.4c0.8-0.6,2.1-0.3,2.8,1.2c0.2,0.4-0.4,1.7-1.1,3
	c-0.4,0.7-0.8,1.3-1,1.9c-0.6,1.5-1.6,2.5-0.8,2.9c1.6,0.1,3.1,0.1,4.6,0c1.7,0,3.2,0,4.7,0c3,0,5.9,0,8.9-0.3c0.6,0,1.2,0,1.7-0.1
	c1.8-0.3,3.2-0.4,4.4-0.6c2.5-0.4,4.1-0.6,5.5-0.8c1.2-0.2,2.4-0.2,3.6-0.2c0.6,0.1,1.2,0.3,1.7,0.8c0.8,0.6,1.2,1,1.7,0.9
	c0.9-0.2,1.8-0.4,2.6-0.5c1.1-0.2,2.2-0.4,3.1-0.7c0.8-0.1,1.5-0.4,2.2-0.7c0.3-0.2-0.1-0.9-0.7-1.4c-0.3-0.3-0.8-0.5-1.2-0.6
	c-2-0.4-2.9,0.1-4-1.7c-0.4-0.5-0.2-1.2,0.3-1.5c0.2-0.1,0.4-0.2,0.6-0.2c1.4-0.3,2.9-0.2,4.3,0.4c2.3,0.7,3.6,2.5,4.9,4.5
	c0.6,1.1,1.1,2.3,1.4,3.5c0.4,1.3,0.8,2.6,1.1,3.8c0.2,0.9,0.4,1.8,0.8,2.7c0.7,1.6,1.1,3.1,1.9,4.4c1.9,3.6,4.5,6.7,7.7,9.2
	c2,1.6,3.8,3.3,5.4,5.2c0.9,1,1.6,2.1,2.3,3.2c0.5,0.9,0.9,1.8,1.1,2.8c0.4,1.7,0.6,3.4,0.8,5.1c0.2,1.4,0.5,2.8,0.6,4.2
	c0.2,0.8,0.3,1.7,0.4,2.6c-0.1,3.3,0.7,5.8,0.6,8.4c-0.4,1.5-1,2.9-1.8,4.2c-0.2,0.3-0.4,0.7-0.6,1c-0.7,0.6-1.5,1.2-2.3,1.6
	c-0.6,0.5-1.2,1.1-1.6,1.9c-0.3,0.5-0.7,0.9-1.1,1.4c-0.2,0.5-0.5,0.9-1,1.2l12.5,0.2c-1.3-0.3-1.1-1.1-1.1-2.1c0-0.7,0-1.4-0.1-2
	c0-0.3,0-0.8,0-1.1c0-0.7,0.1-1.5,0.3-2.2c0.2-0.9,0.6-1.8,1-2.7c0.9-1.5,1.9-2.8,2.1-3.8c0.2-1.3-0.7-3.6-1.1-5.5
	c-0.2-0.9-0.6-4.6-0.6-5.5c-0.1-1.5-0.4-3.3-0.4-4.8c0.1-1.4,0.3-2.9,0.6-4.3c0-0.2,0.2-0.7,0.3-1c0.1-0.6,0.1-1.2,0-1.8
	c-0.3-0.8-0.7-1.6-1.2-2.3c-0.5-0.8-0.9-1.6-1.4-2.3c-1-1.8-1.8-3.6-2.6-5.5c-0.5-1.1-1-2.2-1.5-3.4c-0.7-1.6-1-3.4-1.1-5.1
	c0-2,0.4-4,1.1-5.9c0.8-2.1,2.8-5.2,4.1-8.4c0.9-2.3,1.7-4.6,2.4-7c0.7-2.8,0.9-5.7,0.7-8.6c-0.1-1.4-0.3-2.7-0.6-4.1
	c0-0.6-0.2-1.3-0.4-1.9c-0.2-0.4-0.1-0.7-0.3-1.2c-0.1-0.5-0.4-0.7-0.5-1.1c-0.5-1.2-1.1-2.3-0.6-2.7c1-1,6.6-2,9,1.4
	c2.6,3.7,1.4,8.5,0.4,11.4c-1.5,3.8-2.6,7.6-3.4,11.6c-0.4,1.7-0.1,3.5,0.7,5.1c0.9,1.4,1.5,3.1,1.7,4.7c0.1,3.1-3.1,4.2-3,7.5
	c0,1.8,1.7,4.9,4.3,4.8c0.2-0.5-0.2-0.9-0.2-1.4c0-1.3,0.2-2.5,0.6-3.8c0.6-1.7,1.9-3,3.5-3.6c2-1.4,5.5-2.9,5.7-5.6
	c0.1-1,0-2.1-0.3-3.1c-0.3-1.3-0.8-2.5-1.3-3.7c-0.5-0.8-0.8-1.7-1-2.6c0-0.6,0.1-1.2,0.3-1.7c0.2-0.9,0.4-1.8,0.8-2.7
	c1.3-2,2.4-4.1,3.2-6.4c0.6-1.4,1-3,1.1-4.5c0.1-1,0-2.1,0-3c-0.1-2.3-0.7-4.5-1.8-6.4c-0.4-0.8-1-1.5-1.7-2.1
	c-1-0.9-2.1-1.7-3.3-2.4c-0.5-0.3-1.1-0.5-1.6-0.6c-2.5-0.9-5-0.8-8.4,0.3c-1.2,0.4-2.3,0.8-3.4,1.4c-1.7,1-3.2,2.1-4.4,1.8
	c-1.2-0.3-2.1-2-2.9-2.7c-1-0.9-2.2-1.7-3.5-2.2c-2-0.8-4-1.3-6.1-1.7c-2.2-0.3-4.3-0.3-6.5,0l-5.9,0.5c-1.9,0.2-3.9,0.6-5.8,0.9
	l-4.5,0.5c-2.7,0.3-5.9,0.7-8.8,1.1c-0.8,0.1-1.3,0.1-2,0.2c-1.4,0.2-2.9,0.2-4.3,0.1c-0.8-0.1-1.6-0.1-2.4-0.1l0,0
	c-1-0.1-3.9-0.4-4.2-0.5s-2.1-0.2-2.6-0.4l-4.5-0.9c1.4-0.7,2.7-1.6,3.9-2.8c2.8-2.9,4.4-7.9,2-11.6c-0.4-0.6-0.9-1-1.4-1.5
	c-1-0.9-2.2-1.6-3.5-2c-0.5-0.1-0.9-0.1-1.4,0c-0.5,0.1-0.9,0.5-1,1c-0.1,0.4,0,0.7,0.2,1c0.6,0.9,1.9,1.4,3,2.2
	c0.7,0.5,1.3,1.3,1.5,2.1c0,0.1,0,0.2,0.1,0.4c0.2,1.1,0,2.2-0.3,3.2c-0.6,1.7-1.7,3.1-3.2,4.1c-1.2,0.9-2.5,1.6-3.9,2
	c-0.8,0.3-1.5,0.5-2.2,0.7c-7.9,0.1-13-8.5-17.1-14.2c-0.7-0.9-2-2.6-3.4-4.3c-0.8-1.2-1.7-2.3-2.6-3.4c-1.2-1.3-2.4-2.4-3.8-3.4
	c-1.4-1-2.9-2-4.4-2.7c-2-0.9-4.2-1.9-6.3-2.6c-1.6-0.6-3.3-1-5-1.3c-0.7-0.1-1.6-0.5-2.5-0.6c-0.7-0.1-1.4-0.2-2.1-0.5
	c-0.3-0.1-0.7-0.3-0.9-0.6c-0.5-0.6-0.2-1.3,0.9-1.4c2.1-0.2,4.2-0.1,6.3,0.2c0.7,0.1,1.5,0.2,2.2,0.3c1,0.2,2,0.5,3,0.8
	c2.7,0.9,5.2,2,7.7,3.4c0.5,0.3,1.1,0.8,1.6,1.1c1.4,0.9,2.7,1.9,3.8,3.1c1.2,1.1,2.3,2.3,3.3,3.6c0.2,0.2,0.9,1.1,1.2,1
	c0.3-0.1-0.3-1.2-0.3-1.5c-0.7-1.9-2.4-5.5-4.3-7.2c-1.9-1.7-3.6-1.4-4.1-1.8c-0.4-0.4-0.6-0.8-0.6-1.3c-0.3-1.1-1-2.1-2.1-2.7
	c-1.6-1.1-3.6-0.2-5.3-0.5c-1-0.4-1.9-0.9-2.8-1.5c-0.7-0.4-1.5-0.7-2.3-0.9c-1.7-0.4-3.5-0.5-5.2-0.4c-2.3,0.1-3.8,2-5.2,2.8
	c-0.5,0.3-1.2-0.2-1.9-0.4c-0.9-0.2-1.9-0.3-2.9-0.2c-2.1,0.3-4,1.1-5.7,2.3c-1.9,1.3-2,2.5-3.1,3c-0.2,0.1-1,0.1-1.2,0.2
	c-1.4,0.3-2.7,1-3.8,1.9c-0.8,0.8-1.5,1.7-2,2.7c-0.2,0.2-0.4,0.4-0.7,0.5c-0.4,0-2,0-3.4,0.2c-0.6,0.1-1.3,0.2-1.9,0.4
	c-1,0.3-1.7,0.6-1.7,0.9c0,0.7,3.7,1.6,2.6,1.3c0.7,0.1,1.4,0.3,2,0.6c0.8,0.3,1.4,1,1.4,1.9c0.2,0.7,0.3,1.5,0.2,2.3
	c-0.3,2.5-0.8,5-1.5,7.4c-0.1,0.9-0.2,1.8-0.2,2.7c0,0.7-0.1,1.8-0.1,2.5c0.2,3.4,1.8,5.6,2.6,9.8c0,0.2,0.2,2.5,0.4,3.5
	c0.3,1.6,0.4,3.3,0.4,4.9c0,0.8-0.4,1.7-0.4,2.5c0,3.1,1.3,5.1,3.5,5.6c0.8,0.3,1.8,0.3,2.5-0.1c1.6-0.9,1.5-2.3,1.6-3.7
	c0-0.5,0-1,0.1-1.5c0.9-2.7,2.7-2.3,3.2-2.1c1.1,0.4,1.1,1.4,1.1,2c-0.1,1.2-0.3,2.3-0.6,3.4c-0.2,1.7,0.4,2.3,1.6,1.4
	c0.5-0.4,0.4-1.3,0.8-2.1c0,0,0.8-4.5,1.5-8.7h0.1c0.6-0.1,1.2-0.2,1.9-0.1c2.8,0,5.7-0.1,8.6-0.2l2.2-0.1l0.8,1.8
	c0.9,1.9,1.7,3.9,2.4,5.9c1.1,3.3,2,6.7,2.6,10.1c0.2,0.7,0.2,1.6,0.3,2.3c0.4,2.8,0.5,5.6,1.1,8.2c0.3,1.3,0.7,2.6,1.4,3.8
	c1.1,2,3.2,3.8,6.7,7.5c1.2,1.3,1.7,3,2.5,4.7c0.3,0.5,0.3,1.2,0.5,1.8C267.8,319.4,268.5,320.8,269.1,322.4z M219.2,258.7v-0.1
	C219.2,258.6,219.2,258.7,219.2,258.7c0.4-5.1,6.7-3,6.2,0.7c-0.1,1.7-1.7,3-3.4,2.9c-1.7-0.1-3-1.7-2.9-3.4
	C219.2,258.9,219.2,258.8,219.2,258.7z M224.7,281.9c-2.7-0.6-1.3-4.1,0.9-2.7C227,280.2,226.9,282.4,224.7,281.9L224.7,281.9z
	 M245.3,269.4c-2.7,0.1-5.8,0.2-8.4,0.1c0.1-1,0.2-1.9,0.3-2.9c0-0.3,0.7-1,1.1-1.4c0.6-0.6,1.1-1.3,1.5-2c1-2.1,1.4-4.4,1.2-6.8
	c0-2.7-0.4-5.4-1.1-8c-0.3-0.7-0.7-1.3-1.1-1.9c-1.7-1.7-0.9-2.5,0.7-2.9c0.9,0,1.7,0.5,2.1,1.2c1.4,1.9,2.3,4.2,2.6,6.6
	c0.3,2.7,0.1,2.6,0.4,5.2c0.2,1.9-0.7,4.4-0.1,5.6c0.8,1.3,1.5,2.7,2.1,4.2l1.1,2.8C246.9,269.3,246.1,269.3,245.3,269.4z"/>
<path d="M255.2,333.8c0.4,2.2,0.9,5,1.3,7.7c0.1,2.1,0.5,4.1,1.1,6.1c0.5,0.9,1.1,1.7,1.8,2.4c1.3,1.5,2.7,2.8,4,4.3
	c0.1,0.1,0.2,0.2,0.4,0.3c0.1,0,0.3-0.1,0.4-0.3c0.8-1.3,1.4-2.7,1.9-4.1c0.2-0.3,0.2-0.5,0.3-0.8c0.5-1.2,1.1-2.3,0.9-2.7
	s-1.1-0.5-2.1-0.5c-0.6,0-1.4-0.3-2.1-0.3c-0.7-0.1-1.4-0.4-1.9-0.8c-1.1-0.7-1.4-2.2-0.7-3.3c0,0,0,0,0,0c0.2-0.3,0.9-1.3,0.8-2.2
	c-0.3-1.3-0.8-2.6-1.3-3.8c-0.2-0.9-0.4-1.8-0.4-2.7c-0.2-0.9-0.3-1.8-0.4-2.7c-0.1-1,0.2-2.1,0.8-2.9c0.9-1.1,2.3-1.3,3.7-1.8
	c0.6-0.2,1.6-0.5,1.8-1l0.1-0.5c-0.1-0.5-0.3-1-0.5-1.5c-0.1-0.5-0.4-0.9-0.6-1.3c-0.6-0.1-1,0.3-1.5,0.5c-1.1,0.4-2.3,0.9-3.3,1.2
	c-1.2,0.4-2.4,0.9-3.6,1.5c-1,0.5-1.7,0.9-2.4,1.3c-0.9,0.5-0.5,1.7,0,3.3C254.4,330.4,254.8,332.1,255.2,333.8z"/>
<path d="M249.4,323c1.1-0.5,2.2-1,3.4-1.5c2.6-1.1,5.4-1.8,7.9-2.8c0.6-0.2,1.2-0.5,1.8-0.8c0.4-0.3,0.7-0.4,0.7-0.8
	c-0.1-0.4-0.3-0.8-0.5-1.1c-0.1-0.4-0.3-0.7-0.4-1.1c-0.5-0.6-1-1.1-1.6-1.6c-0.7-0.7-1.4-1.4-2.1-2.1c-0.9-0.8-1.9-2.3-2.6-2.5
	c-0.3-0.1-2.1,0.9-4.1,2.5c-0.7,0.5-1.5,1-2.3,1.5c-0.6,0.4-1.2,1-1.8,1.4c-1,0.7-2.1,1.4-3.1,2.2c-0.9,0.6-1.9,1.2-2.7,1.9
	c-0.3,0.2-0.7,0.5-1,0.8c-0.6,0.5-1.1,1.1-1.4,1.8c-0.5,1.4-0.4,3.6,0.3,6.1c0.4,1.6,0.5,3.8,0.8,5.6c0.3,1.5,0.5,3.1,0.6,4.6
	c0,1.1-0.2,2.7-0.2,4.2c0,0.6,0,1.1-0.1,1.7c-0.6,2.1-0.8,4.3-0.4,6.4c0.9,2.8,2.3,5.5,4.2,7.7c0.4,0.8,1,1.5,1.6,2.2
	c1-1.2,1.9-2.4,2.7-3.8c0.4-0.6,0.8-1.2,1.2-1.9c0.2-0.4,0.4-0.7,0.6-1.2c0.1-0.3-0.3-0.8-1-1.1c-0.9-0.3-1.8-0.6-2.7-1
	c-1.7-1-2.9-2.6-2.2-3.9c0.9-1.4,2-1.6,2.4-2.3c0.3-0.5,0-1.3-0.5-2.5c-0.6-2.1-0.9-4.3-0.7-6.5c0.1-2.9-0.9-7.7,0.4-10.4
	C247.1,323.8,248.4,323.5,249.4,323z"/>
<path d="M217.8,277.8c0-0.5,0.1-1.9,0.1-2.4c-0.1-2.4-0.3-4.9-0.7-7.2c-0.4-1.3-0.8-2.6-1.3-3.8c-0.2-0.6-0.2-1.7-0.9-2.3
	c-0.4-0.3-0.9-0.5-1.4-0.6c-0.9-0.3-1.5-1-1.7-1.9c-0.3-1,0-2.1,0.8-2.7c0.5-0.5,1.4-0.6,1.7-1.1c0.2-0.6,0.3-1.2,0.4-1.9
	c0.9-3.3,2.2-8.5,1.3-9.5c-0.4-0.3-0.9-0.5-1.4-0.6c-0.5-0.1-1-0.3-1.5-0.4c-1.4-0.6-2.8-1.3-4-2.2c-0.6-0.4-3.4,1.2-2.8,1.5
	c0.3,0.2,1.6,0.4,2.9,0.9c1.6,0.7,3.3,1.8,3.5,2.8c0.3,1.2-0.5,5.9-0.8,7.2c-0.4,1.3-0.8,2.7-1,4c-0.1,0.6-0.1,1.2,0,1.8
	c0,0.2-0.1,0.4,0,0.6c0.6,1.4,1.3,2.7,2.1,3.9c0.3,0.5,0.1,1.5,0.2,2c0.5,2.2,0.8,4.4,0.8,6.6c-0.1,1-0.2,2-0.4,3
	c0,0.8-0.1,1.6-0.3,2.4c-0.4,1.2-0.4,2.5,0.2,3.6c1.1,2.4,4.1,2.8,4.2,1.6c0.2-2-1.6-1.2-2.2-2.1c-0.6-0.9-1-1.3-0.3-2.5
	C215.7,277.9,217,277.9,217.8,277.8z"/>
<path d="M275.4,385c2.2,1.6,4.8,2.5,7.6,2.7c2.5-0.1,4.9-1.1,6.9-2.6c1.9-1.4,3.1-2.7,4.9-4.2c0.5-0.5,1.2-0.8,2-0.7
	c1.2-0.1,2.3-0.1,3.5,0c0.3,0,0.5,0,0.8-0.1c0.1-0.1-0.1-0.5-0.2-0.7c-1.8-2.3-3.8-2.3-5.5-2.2c-6,0.2-7.9,5-12.1,5.5
	c-2.3,0.3-6.3-0.7-8.4-1.5c-1.9-0.7-3.7-1.6-5.5-2.5c-0.2-0.1-0.4,0.1-0.2,0.4C271,381.2,273.1,383.2,275.4,385z"/>
<path d="M302.2,386.1c0.9-0.1,2.5-2.3,2.8-2.8c0.2-0.3,0.1-0.4-0.2-0.5c-2.1-0.2-4.1-0.2-6.2,0.1c-1.1,0.3-4.6,2.4-4.2,2.9
	C294.9,386.3,300.7,386.2,302.2,386.1z"/>
<path d="M303.1,393c5.2,0.6,9.3-4.1,12.6-7.7c1.7-2.1,3.9-3.8,6.4-4.7c1.3-0.5,2.6-0.2,4-0.2c1.1,0,0.9-0.4-0.5-1.4
	c-1.5-1.1-3.4-1.6-5.2-1.4c-1.5,0-3,0.3-4.4,0.8c-2.2,0.8-4.2,2-5.8,3.7c-1.8,1.7-3,4-4.8,5.7c-1.1,0.9-1.3,1.5-3.7,1.4
	c-1.3-0.1-2.6,0-3.9,0.2c-0.2,0.2,0.1,0.7,0.1,0.7C299.2,391.6,301.1,392.7,303.1,393z"/>
<path d="M325.4,386.5c0.6,0.1,1.2,0,1.8-0.3c0.5-0.4,2.9-2.2,2.8-2.7c0-0.2-1.4-0.2-3.1-0.3c-1.1-0.1-2.2-0.1-3.3,0
	c-1.5,0.4-2.8,1.3-3.7,2.5c-0.1,0.2-0.1,0.3,0.1,0.4C320.1,386.3,324.1,386.4,325.4,386.5z"/>
<path d="M352.4,383.7c-0.8-0.1-1.6-0.2-2.4-0.1c-0.8-0.1-1.7-0.1-2.5,0.1c-1.2,0.3-3.1,2.6-3.2,2.9c-0.1,0.3-0.2,0.5,0.3,0.6
	c0.5,0.1,3.8,0.2,5.7,0.2c1.1,0,2.2,0.2,2.4-0.3c0.2-0.6,0.3-1.3,0.2-1.9C352.7,384.5,352.7,383.9,352.4,383.7z"/>
<path d="M370.5,381.3c1.6-0.5,5.3-0.6,4.8-1.2c-0.5-0.6-2.2-1.4-4.3-1.6c-1.1-0.1-2.3-0.2-3.4-0.1c-2.5,0.2-5.2,1-7.8,1
	s-4.9-0.9-7.5-1.5c-3-0.9-6.2-0.9-9.3-0.1c-4.3,1.3-6.9,3.8-10,6.9c-1.4,1.4-2.8,3.3-4.6,4c-1.8,0.7-5.8,0.2-6.7,0.3l-0.8,0.1
	c-0.8,0.7,2.9,3.5,4.9,3.8c1.5,0.2,5,0.3,7.2-0.8c4.5-2.3,6.8-6.3,10.5-9.7c1.7-1.8,4.2-2.7,6.7-2.4c3,0.3,5.6,1.6,8.3,2.6
	c2.1,0.9,4.2,1.6,6.5,2.1c0.4,0.1,0.8,0.2,1.2,0.3c1.2,0.2,5.3,0.7,7.7-0.3c0.4-0.2,1.1-0.6,1.1-1c0-0.7-5.3-0.1-5.1-1.7
	C370,381.7,370.2,381.4,370.5,381.3z"/>
<path d="M378.2,381.4c-0.8,0-1.5,0.2-2.2,0.4c-0.3,0.3,0,0.5,0.2,0.5c0.2,0,1.2,0.2,2.2,0.4c1.7,0.3,3.6,0.8,3.4-0.8
	C381.6,380.8,379.8,381.2,378.2,381.4z"/>
<path d="M417.4,330.5c0.3,1.6,0.7,2.2,1.8,2.5c0.5,0,1.1,0,1.6-0.1c0.7,0,1.3-0.1,2-0.4c0.7-0.4-1.2-4-3.1-6.8
	c-1.3-2-2.5-3.4-2.9-3.2c-0.3,0.2-0.2,0.9-0.1,1.9c0.1,1.2,0.3,2.7,0.5,4.1C417.2,329.2,417.3,330,417.4,330.5z"/>
<path d="M401.9,328.4c0.1,0.6,0.1,2,0.2,3.2c0.1,0.9,0.4,1.1,1.2,1.1s1-0.2,1.1-1.1c0.2-1.3,0.2-3.2,0.4-4.6
	c0.1-1.1,0.2-2.7,0.3-4.2c0.1-1,0.4-2,0.4-2.8c0-0.8,0.1-1.4-0.2-1.5c-0.6-0.4-4.3-0.4-4.4,0.4c0,0.7,0.1,1.5,0.2,2.2
	c0.1,1,0.2,2,0.3,2.6C401.6,325.3,401.7,326.8,401.9,328.4z"/>
<path d="M396.9,338.5c-0.5-0.2-1-0.3-1.5-0.3c-0.6,0-1.1-0.1-1.5-0.1c-1.4-0.1-2.5-0.2-3.7-0.4c-0.4,0-0.9,0-1.3-0.1
	c-1-0.2-2-0.4-3.1-0.4c-0.8-0.1-1.5-0.3-2,0.1c-0.2,0.2-0.2,0.6-0.2,0.7c-0.2,0.7-0.3,1.3-0.3,2c0,1.4,0.2,2.8,0.5,2.9
	c1-0.1,2.1-0.3,3-0.6c1.1-0.2,2.2-0.4,3.4-0.5c0.6-0.1,1.4-0.1,2.3-0.2c0.6-0.1,1.1-0.2,1.7-0.2c1,0,1.9-0.1,2.9-0.4
	c0.2-0.6,0.3-1.2,0.2-1.7C397.1,339,397.1,338.7,396.9,338.5z"/>
<path d="M398.5,329.5c-0.1-1.2-0.1-2.4-0.2-3.7c-0.2-2.2-0.6-4.4-1.3-6.5l-0.1-0.1c-0.5-0.9-3.4,0.3-4.1,1c-0.3,0.3-0.2,1.2-0.2,2.2
	c0,0.5,0,1.1,0,1.6c0.3,3.3,0.2,9.6,0.8,9.9c0.8,0.2,1.7,0.3,2.5,0.2c1,0,2.1,0,2.5-0.4C398.8,333.4,398.6,330.8,398.5,329.5z"/>
<path d="M403.5,342.2c4-0.7,3.3-6.8-0.8-6.6C398,335.9,398.8,343,403.5,342.2z M403.5,337.2c1.9,0.9,1.2,4.1-1.3,3.4
	c-1-0.3-1.6-1.3-1.3-2.2s1.3-1.6,2.2-1.3C403.3,337.1,403.4,337.1,403.5,337.2L403.5,337.2z"/>
<path d="M401.9,361.3l1.5,0.1c0.8,0,1.6,0,2.3,0c0.3,0,0.5,0,0.8-0.1c0.4-0.2,0.2-1.3-0.1-2.5c-0.2-0.8-0.3-1.6-0.4-2.4
	c-0.3-2-0.6-3.8-0.7-6c-0.1-1.3-0.2-2.5-0.5-3.8c-0.2-0.5-0.1-1-0.9-1c0,0-2.2-0.1-2.4,0.3c-0.3,0.7-0.2,6.2-0.3,7.3
	c-0.1,0.9-0.1,1.5-0.2,2.6c-0.2,2.5-0.7,4.9-0.6,5.1C400.7,361.2,401.1,361.2,401.9,361.3z"/>
<path d="M410.7,334c0.6-0.1,1.3,0,1.8-0.1c0.5-0.1,0.7-0.3,0.7-0.6c0-1.4-0.2-2.6-0.2-3.5c-0.1-2.5-0.2-5.3-0.2-7.2
	c0-1-0.1-2.1-0.3-3.1c-0.1-0.3-0.4-0.4-0.6-0.6c-0.5-0.2-0.9-0.4-1.5-0.4c-0.5,0-0.7,0.7-0.9,1.5c-0.1,0.5-0.3,1.1-0.4,1.6
	c-0.1,0.7-0.3,1.4-0.4,2c-0.3,1.3-0.5,2.6-0.6,3.9c-0.1,0.9-0.3,2.2-0.4,2.8c0,1.3-0.3,3.3,0.2,3.6
	C408.9,334.1,409.8,334.1,410.7,334z"/>
<path d="M409.4,340.8c1.1,0.2,2.3,0.3,3.4,0.2c1,0,2,0.1,2.8,0.2c1.3,0,2.6,0.1,3.8,0.3c0.6,0.1,1.7,0.2,2.7,0.3
	c0.6,0.1,1.1,0.1,1.7,0c0.5-0.2,0.6-1.3,0.5-2.6c-0.1-1.3-0.1-2.4-0.9-2.4c-0.3,0-1.6,0.3-3.1,0.5c-1.9,0.3-4,0.5-5,0.6
	c-0.4,0.1-1.1,0.1-1.9,0.2c-0.8,0.1-1.4,0.2-2,0.3c-1.3,0.1-2.2,0.1-2.2,0.7C409.1,340,409.1,340.5,409.4,340.8z"/>
<path d="M427.5,260.8c-1.5-1.4-2.8-3-4.4-4.3c-2.1-1.7-3.4-3.1-5-4.5c-0.6-0.5-1.2-1.1-1.8-1.6c-0.7-0.5-1.7-1.1-2.7-1.8
	c-0.8-0.9-2.1-1.2-3.2-0.8c-0.3,0.1-0.6,0-0.9,0.1c-1.6,0.2-3.7,0.3-6.1,0.4c-1,0-2,0-3-0.1c-1.6-0.1-3.1,0.1-4.6,0.5
	c-2.3,0.6-3.3,1.9-3.3,3.9c0,0.4,0,0.8,0,1.2c0.5,2.3,1.4,4.5,2.6,6.5c0.7,1.2,1.6,2.4,2.5,3.6c0.2,0.3,0.7,0.2,0.8,0.2
	c0.4,0.7,1.1,0.8,2.4,0.7c0.8-0.2,1.6-0.4,2.4-0.4c1.2,0.2,1.5,1.4,1.9,2c0.4,0.4,0.8,0.8,1.2,1.1c0.5,0.3,1,0.5,1.6,0.5
	c0.7,0.1,1.5,0.1,2.2,0c1.7-0.2,2.2-1,2.9-0.6c0.3,0.2,0.6,0.6,0.9,1c0.3,0.4,0.7,0.7,1.1,1c1.6,1.2,3.2,1.3,5.2,1.4
	c2,0.1,4.1-0.1,6.1-0.5c0.9-0.1,1.8-0.3,2.7-0.5c1.1-0.3,2.1-0.7,3.1-1.4c0.4-0.3,0.7-0.5,0.8-1c-0.1-0.8-0.4-1.5-1-2
	C430.4,263.8,429,262.2,427.5,260.8z"/>
<path d="M405.9,275.2c2.8,1,5.7,1.4,8.6,1.3l1.5-0.1c0.3,0,0.7,0,1-0.1c1.7-0.3,4-0.6,4.2-0.8s0.5-0.8,0-0.9
	c-0.3-0.1-0.6-0.2-0.8-0.2c-0.5,0-1.1,0-1.6-0.1c-0.8-0.1-1.6-0.3-2.4-0.5c-1-0.2-2.1-0.6-3-1.1c-0.5-0.4-1.1-0.6-1.7-0.7
	c-0.6,0-1.5,0.1-2.4,0.1c-1.2,0.1-2.4-0.1-3.5-0.5c-0.7-0.4-1.3-0.8-1.9-1.3c-0.4-0.3-0.8-0.7-1.2-1c-0.4-0.2-0.8-0.2-1.2,0
	c-0.4,0.1-0.9,0.1-1.1,0.4C400,270.3,403,274,405.9,275.2z"/>
<path d="M413.7,221.4l-1.3,0.3c-0.4,0-1,0-1.3,0.3c-0.5,0.4-0.2,1.5-0.5,2.4c-0.5,2.1-1,4.2-1.7,6.3c-0.5,1.2-0.9,2.5-1.5,3.7
	c-0.6,1.2-1,1.9-1.3,2.6c-0.7,1.2-1.4,2.9-2.2,4.1c-0.2,0.3-0.4,0.7-0.5,1s-0.4,0.9,0.2,1.2c0.5,0.2,1,0.4,1.6,0.3
	c0.8-0.1,1.7-0.2,2.5-0.3c1.6-0.1,1.6-0.5,1.8-1.4c0.1-0.4,0.6-1.4,0.8-1.9c0.2-0.6,0.5-1.1,0.8-1.7c0.4-0.7,0.7-1.6,1.1-2.3
	c1.1-2.2,2.1-4.4,3-6.6c0.7-1.8,1.2-3.6,1.4-5.5c0.1-1.8-0.1-3.9-2-2.8C414.2,221.1,413.9,221.2,413.7,221.4z"/>
<path d="M401.5,182.7c-1.4-1.1-2.7,0.1-3.3-0.2c-0.5-0.3-1-0.7-1.3-1.2c-0.5-0.6-1.2-0.9-2-0.8c-1.2,0-1.6,0.8-2.7,0.9
	s-0.9-1-3.3-0.6c-1.5,0.2-2.6,1.9-3.7,2.3c-0.7,0.2-2.5-0.6-3.9,1.4c-0.9,1.3-0.7,2.8,0.4,3.2c0.6,0.2,2.1-0.5,3.7-0.5
	c0.8,0.1,1.5,0.3,2.2,0.7c0.5,0.2,1.2,0.5,1.5,0.8c1.2,0.7,2.2,1.5,3.2,2.5c0.8,0.9,1.2,1.6,1.5,1.7c0.9,0,1.1-1.4,1.9-2.6
	c1-1.5,2.4-2.8,3.8-1.9c2.5,1.6,4.9,5.1,6.7,7.4c1.3,1.6,2.5,3.3,3.6,5c0.5,0.8,1.5,2.1,2.2,3.2c0.7,1.1,1.6,1.9,2.8,0.8
	c0.8-0.7,0.4-1.7,0.8-2.4c0.3-0.4,1.1-0.3,1.4-0.6c1.2-1.3,0.4-1.7,0.2-3.2c-0.1-1.1,1-1.3,0.9-2.6c-0.1-1.9-1.7-2.1-1.9-2.7
	c-0.3-0.7,0.4-1.2,0.6-1.9c0.3-1,0-2.1-0.7-2.9c-0.6-0.8-1.7-1.1-2.7-0.8c-0.6,0.1-0.8,0.4-1.5,0.1c-0.2-0.1-0.5-0.5-0.9-0.8
	c-0.7-0.4-1.4-0.6-2.2-0.6c-0.6,0-1.1,0.1-1.6,0.3c-0.3,0.1-0.4,0.3-0.7,0.4h-0.2c-0.7,0.1-0.6-0.3-1.8-0.4c-0.9,0-1.9,0.6-2.3-0.7
	C402.2,185,403.1,184,401.5,182.7z"/>
<path d="M382.4,197.3c-0.2,0.3-0.5,0.6-0.7,0.9c-0.2,0.3-0.5,0.7-0.7,1.1c-0.3,0.6-0.5,1.1-0.1,1.4c0.4,0.3,1.2-0.2,1.8,0.6
	c0.2,0.4,0.4,0.7,0.5,1.1c0.1,0.2,0.2,0.2,0.2,0.4c0.1,0.4,0,0.8,0.1,1.1c0.1,0.3,0.2,0.5,0.4,0.6c0.5,0.4,2.6,0,3.8-0.2
	c0.8-0.1,1.5-0.5,2.1-1.1c0.3-0.4,0.2-1,0.5-1.4c0.7-0.7,0.8-1.8,0.4-2.7c-0.8-1.3-2.5-1.1-3.6-0.9c-0.5,0-0.9,0-1.4-0.2
	c-0.6-0.1-1.3,0.2-1.5-0.2c-0.3-0.8,0-1.8,0.8-2.2c0.7-0.2,1.5-0.2,2.2,0.1c1.1,0.3,1.7,0.4,1.7-1c-0.2-1.4-1.1-2.7-2.3-3.4
	c-1.3-0.5-2.2-0.9-2.5-0.4c-0.4,0.7-0.6,1.5-0.5,2.3c0.1,0.7,0.1,1.5-0.2,2.1C383.3,196,382.7,196.8,382.4,197.3z"/>
<path d="M325.3,142.4c-0.3,0.3-0.5,0.5-0.1,1c0.4,0.5,1.4,1.4,2.1,2.2c0.7,0.8,0.9,0.4,1.1,0.2c5.2-4.5,11.1-8.2,17.3-11.2
	c0.6-0.2,2.4-0.9,3.7-1.4c2.7-0.9,5.4-1.7,8.2-2.2c0.3,0,0.9-0.1,0.6-0.4c-0.2-0.3-4.7-2-6.9-1.7c-3,0-6,0.6-8.9,1.7
	c-4.1,1.9-8,4.1-11.6,6.6C329.9,138.1,325.6,142.1,325.3,142.4z"/>
<path d="M302.6,127.5c1.9,0.3,3.7,0.9,5.3,1.7c2.4,1.2,4.8,2.5,7.1,4c2.5,2,5,4.2,7.2,6.6c0.7,0.9,1.2-0.1,1.2-0.1s0.5-0.5,1-0.9
	c0.9-0.8,1.9-1.8,1.5-2.1c-0.2-0.2-0.3-0.5-0.6-0.8c-0.5-0.5-1.2-1.3-2.1-2.1c-0.8-0.7-1.7-1.4-2.7-2c-0.4-0.2-0.6-0.6-1-0.9
	c-1.7-1.5-3.8-2.7-6-3.4c-7.5-2.2-10.4-0.6-10.9-0.6C302.3,126.8,301.3,127.3,302.6,127.5z"/>
<path d="M295.7,186.6c0.6-0.3,0.9-1.1,0.6-1.7c-0.2-0.4-0.7-0.7-1.2-0.7l0,0H295c-0.2,0-0.4,0.1-0.6,0.2h0.1c-0.6,0.3-0.9,1-0.6,1.6
	c0.3,0.6,1,0.9,1.6,0.6C295.6,186.7,295.6,186.7,295.7,186.6z"/>
<path d="M306,186.4c0.8,0.2,1.6-0.3,1.7-1.1c0.2-0.8-0.3-1.6-1.1-1.7c-0.1,0-0.2,0-0.3,0h-0.1c-0.7,0.1-1.2,0.6-1.3,1.3
	c-0.3,0.6,0,1.3,0.6,1.5C305.7,186.4,305.8,186.4,306,186.4z"/>
<path d="M307.7,177.8c0.4-0.6,0.2-1.4-0.4-1.9c-0.2-0.1-0.4-0.2-0.6-0.2h-0.1c-0.8,0-1.4,0.6-1.4,1.4c0,0.2,0,0.3,0.1,0.5
	C305.6,178.2,307.1,178.4,307.7,177.8z"/>
<path d="M303.5,188.4h-0.2c-0.7,0.1-1.2,0.7-1.2,1.4c0.1,0.7,0.7,1.2,1.4,1.2c0.7-0.1,1.2-0.7,1.2-1.4
	C304.7,188.9,304.2,188.4,303.5,188.4z"/>
<path d="M303.2,179.5h-0.1c-0.8,0.1-1.2,1.2-0.9,2c0.3,0.7,1.1,1.1,1.8,0.8c0,0,0.1,0,0.1,0c0.8-0.1,1.4-0.9,1.2-1.7
	c-0.1-0.8-0.9-1.4-1.7-1.2C303.5,179.4,303.4,179.4,303.2,179.5z"/>
<path d="M301.4,175.3c-0.7-0.1-1.4,0.4-1.5,1.2c-0.1,0.7,0.4,1.4,1.2,1.5h0.1c0.8,0.1,1.4-0.5,1.5-1.3c0-0.1,0-0.1,0-0.2
	C302.6,175.9,302.2,175.4,301.4,175.3C301.5,175.3,301.5,175.3,301.4,175.3z"/>
<path d="M300.2,187.4c2.1,0.3,2.3-2.7,0.5-2.9l0,0C298.8,184.3,298.2,187.1,300.2,187.4z"/>
<path d="M298.5,179.8c-0.8-0.3-1.7,0.1-2,0.9c-0.1,0.2-0.1,0.4-0.1,0.6c0,0.4,0.1,0.8,0.4,1.1c0.4,0.3,0.9,0.5,1.4,0.5h0.1
	c0.9-0.2,1.5-1,1.3-1.9c0-0.1,0-0.2-0.1-0.3C299.3,180.2,298.9,179.9,298.5,179.8z"/>
<path d="M297.6,191.7c0.8,0,1.5-0.6,1.5-1.5c0-0.7-0.5-1.3-1.2-1.5h-0.1c-1,0.1-1.5,0.4-1.6,1.4c-0.1,0.7,0.4,1.4,1.1,1.5
	C297.4,191.7,297.5,191.7,297.6,191.7z"/>
<path d="M310,180h-0.1c-0.7-0.1-1.4,0.5-1.5,1.2c-0.1,0.7,0.5,1.4,1.2,1.5c0.2,0,0.4,0,0.6-0.1C311.2,182.3,311.7,180.2,310,180z"/>
<path d="M312,177c0.4-0.1,0.8-0.4,1.4-0.6c1-0.5,2.1-0.9,3.2-1.3c0.6-0.2,1.1-0.5,0.9-1.1c-0.3-1-1.2-0.5-1.8-0.3
	c-0.4,0.1-0.7,0.3-1.1,0.4c-0.8,0.3-1.6,0.6-2.3,1c-0.3,0.2-1,0.5-1.2,0.7C310.6,176.2,310.9,177.1,312,177L312,177z"/>
<path d="M345.3,187.8c1.8,0.2,2.6-2.3,0.8-2.8h-0.1C344,184.5,343.5,187.6,345.3,187.8z"/>
<path d="M346.9,177.5l-0.1-0.1c-1.4-1.5-3.1,0.7-2,2C346.2,181,347.8,178.9,346.9,177.5z"/>
<path d="M347.9,192.5c2.2,0.2,1.5-2.6,0.1-2.9l0,0C346.1,189.5,346.4,192.4,347.9,192.5z"/>
<path d="M349.2,180.9H349c-0.8,0-1.4,0.7-1.3,1.4c0,0.8,0.7,1.4,1.4,1.3c0.1,0,0.1,0,0.2,0C351,183.4,350.5,180.8,349.2,180.9z"/>
<path d="M351.7,188.9c1.3-0.7,0.3-2.8-1.1-2.8h-0.2C348.5,186.8,350,189.9,351.7,188.9z"/>
<path d="M352.9,178.4c-0.1-0.7-0.7-1.2-1.4-1.1c-0.1,0-0.2,0-0.3,0.1c-0.8,0.2-0.9,0.9-0.7,1.6l0.1,0.1
	C351,180.5,353.2,179.9,352.9,178.4z"/>
<path d="M353.2,193.8c0.7,0.1,1.3-0.3,1.4-1c0-0.1,0-0.2,0-0.3c0.1-0.7-0.4-1.3-1.1-1.4h-0.1c-0.8-0.1-1.4,0.5-1.5,1.3
	C351.8,193,352.4,193.7,353.2,193.8L353.2,193.8z"/>
<path d="M355.6,183.3c0-0.8-0.5-1.4-1.3-1.5H354c-1.9,0.1-1.5,3.1,0.1,3C354.9,184.8,355.6,184.1,355.6,183.3
	C355.6,183.3,355.6,183.3,355.6,183.3z"/>
<path d="M356.4,189.8c0.8,0.1,1.5-0.6,1.6-1.4c0.1-0.8-0.6-1.5-1.4-1.6c-0.1,0-0.2,0-0.3,0h-0.1c-0.8,0-1.4,0.6-1.4,1.4
	c0,0,0,0.1,0,0.1C354.8,189.2,355.6,189.9,356.4,189.8C356.4,189.8,356.4,189.8,356.4,189.8z"/>
<path d="M343,183.7c1.6-0.2,1.7-2.7-0.1-2.6C341.5,181.3,341.2,183.8,343,183.7z"/>
<path d="M342,175.1c-1.1-0.6-2.3-1.1-3.6-1.3c-0.8-0.2-1.6-0.3-2.3-0.3h-0.2c-0.7,0.2-0.8,0.8-0.5,1.2c0.3,0.4,1,0.5,2.1,0.6
	c1.2,0.1,2.3,0.5,3.3,1.1c0.5,0.2,1.2,0.6,1.6,0C342.8,175.6,342.5,175.4,342,175.1z"/>
<path d="M374.9,207.6c-1.5,0.5-2.9,1.1-4.2,1.8c-2.3,1-3.8,1.7-3.8,2.1s0.2,0.5,0.7,0.8c2.8,1.3,5.3,3.1,7.3,5.4
	c2.7,3.2,5,6.5,7.1,10.1c1.1,1.7,2,3.4,2.8,4.7c1.2,1.9,2,3.1,2.1,3.2c0.3,0.4,0.7,0.8,1,0.9c1,0.3,0.9-0.5,0.4-1.7
	c0-0.2-0.1-0.4-0.1-0.6c-0.6-3,0.1-3.9,0.2-4.4c0.2-0.5,0.4-1.1,0.6-1.6c0.6-0.8,1.2-1.5,2-2.2c1.3-1.2,2.7-2.5,4.1-3.6
	c0.5-0.4,0.9-0.9,1.4-1.4s1-0.8,1.5-1.3c0.5-0.5,0.7-0.8,1-1.2c0.3-0.4,0.7-0.7,1.1-1.1c0.5-0.6,1.6-1.6,1.7-2.2
	c0-0.9-0.2-1.8-0.7-2.6c-0.3-0.7-0.6-1.2-0.8-1.6c-0.3-0.5-0.2-0.9-0.9-0.9c-0.7,0-2.5,1-5.1-0.6c-0.5-0.4-0.9-0.9-1.2-1.4
	c-0.3-0.7-0.5-1.6-1-1.7c-0.4-0.1-0.9-0.1-1.3,0c-0.5,0.1-1,0.1-1.5,0.3c-1.1,0.3-2.3,0.6-3.3,0.8c-0.9,0.1-1.8,0.1-2.7,0
	c-0.9-0.1-1.7-0.2-2.6-0.4C378.8,207,376.8,207.1,374.9,207.6z"/>
<path d="M392.4,234.3L392.4,234.3c0.7,0,1.1-0.7,1.9-2.7c1.3-3.3,1.2-3.7,0.9-4.1c-0.2-0.2-0.4-0.3-0.7-0.2c-0.7,0.4-1.3,1-1.9,1.6
	l0,0c-0.5,0.5-1,1-1.2,1.7c-0.2,0.6-0.2,1.2-0.1,1.8C391.6,234.2,392.2,234.3,392.4,234.3z"/>
<path d="M375.8,225.2c-0.7,0-1.4,0.1-2,0.2c-0.9,0.1-1.9,0-2,0.3c-0.2,0.3,0.8,7.1,2.2,8.9c0.8,1,1.9,1.7,3.1,2c1,0.2,2,0.3,3.1,0.3
	c0.9,0.1,1.8,0,2.7-0.2c0.4-0.3-2.2-4.3-3.2-6.3C378.9,229.2,376.6,225.4,375.8,225.2z"/>
<path d="M368,216.2c-0.7-0.4-1.5-0.7-2.3-0.9c-0.9-0.4-2-0.7-3-0.7c-0.7,0.1-1.5,0.2-2.2,0.4c-2,0.3-4,0.5-6,0.5
	c-1.6-0.1-3.1-0.4-4.8-0.5c-1.9-0.1-3.7-0.1-5.7-0.1c-1.7,0.1-3.3,0.3-4.9,0.7c-1.1,0.2-2.7,0.3-3.6,0.6c-2.4,0.7-4.8,1.3-7.2,1.6
	c-1.5,0.2-2.9,0.4-4.4,0.4c-1.4-0.2-2.8-0.5-4.1-0.9c-1.9-0.4-5.6-1.5-7.7-0.8c-1.3,0.4-1.7,0.9-1.6,2.3c0.1,1,0.4,2,0.9,2.9
	c0.4,0.5,1,0.5,1.2,1.1c0.5,1.2,0,3.4,0.4,6.2c0.3,2.4,0.9,4.7,1.8,6.9c0.6,1.5,1.7,3.6,2.8,6.6c0.6,1.1,1.3,2.2,2,3.3
	c-2.2,0.7-4.4,1.5-6.5,2.2c-2.1,0.7-3.6,1.1-4.5,1.4l-1.7,0.6c-0.8,0.3-1.4,0.5-1,1.4c0.3,0.9,1.1,1.6,2.1,1.7c1.3,0,3.1-1,4.2-1.2
	c0.1,0,0.4-0.2,0.9-0.4c0.5-0.2,1.2-0.3,1.9-0.5c1.2-0.3,2.6-0.9,4.2-1.4c5.3-1.8,11.8-4.2,13.3-4.9c1.1-0.5,1.9-0.9,2.6-1.2
	c0.6-0.2,1.1-0.4,1.7-0.6c0.7-0.2,1.4-0.6,2.3-0.8s9-3.5,9.9-3.8s6.4-1.9,8.3-1.7c1.1,0,2.2,0.2,3.3,0.4c1,0.3,2,0.7,3,1.1l0.2,0.1
	c0.5,0.4-1.1-0.2-1.1-0.2c-0.8-0.3-1.7-0.5-2.6-0.6c-1.1-0.1-2.1-0.1-3.2,0c-0.4,0.1-1,0.2-2.2,0.5c-1.9,0.5-3.7,1-5.5,1.7
	c-0.3,0.1-2.9,1.1-6.2,2.6c-2.2,0.9-4.4,2.1-6.6,3.1c-1.5,0.7-3,1.3-4.1,1.9c-0.2,0.1-1.5,0.7-3.2,1.4c-3.4,1.3-8.3,3.3-9,3.6
	c-0.5,0.2-2.2,0.7-4.1,1.1c-2.5,0.6-5.3,1.1-6.3,1.2c-1.7,0.2-1.9,0.3-2,0.8c-0.1,0.8,0,1.6,0.3,2.3c0.5,0.4,1.2,0.6,1.9,0.6
	c0.2,0,2.1-0.2,4.2-0.7c2.6-0.6,5.6-1.4,6.2-1.6h0.2c0,2-0.1,4.6-0.1,4.9c0,1,0.1,2,0.3,3c0.1,0.2,0.3,0.4,0.6,0.4
	c0.2,0,0.8,0,1.1,0s5.2-0.6,5.2-0.6s1-0.1,1.8-0.2c0.9-0.1,1.7-0.3,2.5-0.7c0.3-0.4,0.1-7.7,0.2-11.4l0.6-0.3c0.3-0.2,3.2-1.3,7.1-3
	c4.4-2.1,8.9-3.9,13.6-5.6c2.1-0.7,4.2-1.1,6.4-1.2c0.7-0.1,1.5,0,2.2,0.3c0.6,0.2,1.2,0.5,1.7,0.9l0,0l0.5-0.4
	c1.3-1.3,2.9-2.3,4.7-2.7c0.5-0.1,1-0.2,1.6-0.2c-0.5-0.7-1.1-1.3-1.7-1.8c-0.1,0-0.9-0.7-1.7-1.2c-1.3-0.9-2.7-1.7-4.2-2.2
	c-2.2-0.7-4.5-1-6.8-0.8c-1.7,0.3-3.4,0.6-5,1.1c-1.3,0.4-2.7,0.7-4,1.1c-1.7,0.6-3.4,1.4-5,2c-2.2,0.8-4.4,1.6-6,2.3l-3.3,1.4
	c0-3.5,0.2-10.2,0.1-12.4c0-3.4,0.2-4.3-0.5-4.7c-0.9-0.2-1.8-0.4-2.7-0.5c-1,0-2.1,0-3.1,0.1c-1,0.1-3.1,0.5-3.3,0.9
	c-0.2,1-0.3,2-0.4,3c0,0.7,0,1.4,0,2.1c-0.2,1.4-0.4,3-0.6,4.2c-0.1,0.7-0.3,1.4-0.5,2c-0.1,0.4-0.3,0.8-0.4,1.1
	c-0.9,2.3-2.1,1.8-2.9,0.9c-0.4-0.6-0.8-1.2-1.1-1.8c-1-1.6-1.6-3.4-1.9-5.3c-0.5-2.2-0.7-4.4-0.6-6.6c0-0.4,0.1-0.7,0.3-1
	c0.1-0.1,0.2-0.2,0.4-0.3c0.8-0.2,1.6-0.3,2.4-0.4c1.4-0.2,3-0.7,3.7-0.9c2.5-0.8,5-1.1,7.6-1.1c2.8,0,3.9,0.7,8.1,0.9
	c3.3,0.2,6.5,0.2,9.8,0c2-0.3,4-0.4,6-0.4c1.2,0.1,2.5,0.3,3.7,0.5c1.6,0.3,3.1,0,4.9,0.2c3,0.3,6,0.4,9,0.1c1.1-0.1,3-0.3,2.9-0.6
	C373.5,220.2,370.2,217.3,368,216.2z M320,241.5c0.2-0.4,0.5-0.8,0.7-1.2c0.6-1.2,1.5-3.3,2.5-5.5c1.2-2.6,2.5-5.4,3.3-7.3
	c0.3-0.7,0.9-2.5,1.7-2.9c1.4-0.7,2.5,0.2,1.8,1.7c-0.2,0.5-0.5,1.1-0.7,1.8c-0.3,0.7-0.5,1.1-0.7,1.4c-0.7,1.5-1.1,2.3-1.7,4
	c-0.5,1.2-0.8,2.1-1.5,3.5c-0.6,1.2-1.2,2.5-1.9,3.7c-0.3,0.6-1.2,2.5-1.8,2.8C320.4,244,319.5,242.6,320,241.5z"/>
<path d="M383.7,241.2c-4.5,0-6.7,0.2-9.4,0c-1.7-0.3-3.4-0.3-5,0c-1.6,0.4-3.1,1.4-4.2,2.6c-1.3,1.2-2.3,1.8-1.8,3
	c0.1,0.3,0.4,0.6,0.7,0.8c0.4,0.2,0.8,0.4,1.1,0.7c0.6,0.6,1,1.5,2.3,1.1c0.5-0.2,1-0.5,1.4-1c0.8-0.7,1.2-1.8,2.3-2.5
	c0.3-0.2,0.7-0.4,1.1-0.6c0.5-0.1,1.1-0.1,1.5-0.2c1.4-0.2,2.9-0.2,4.3,0.1c2.9,0.3,5.9,0.6,8.3,0.9c1.6,0.2,3.6,0.4,5.3,0.5
	c1.2,0.1,2.5,0,3.6-0.5c1.1-0.6,2.1-1.5,2.9-2.5c1.6-2,4-7,5.9-10.8c0.4-0.9,1-2.2,1.5-3.4c0.9-1.7,1.6-3.4,1.9-5.3
	c0.3-3.2-1.3-4.9-0.1-5.9c1.1-0.9,2.6,0.3,4-0.2c1.4-0.5,3.3-1.4,3.5-2c-0.4-1.2-0.9-2.3-1.5-3.3c-1.4-2.7-2.9-5.2-4.5-7.7
	c-0.8-1.1-1.3-2.2-1.9-2.9c-0.6-0.7-1.1-1.6-1.6-2.3c-0.7-0.9-1.4-1.7-2.1-2.7c-1.2-1.7-4.2-5-4.3-4.8c-0.3-0.2-1.3,0.8-2,2.3
	c-0.4,1.2-0.6,2.5-0.6,3.7c0,0.5-0.1,0.9-0.3,1.3c-0.7,1.2-2,2.3-1.6,2.8c0.3,0.6,1,0.5,1.2,0.9c0.1,0.2,0.3,0.5,0.4,0.8
	c0.1,0.2,0,0.4,0.1,0.6c0,0.7,0.3,1.4,0.7,2c1.6,1.5,4.2,0,5.5,0.8c0.3,0.2,0.5,0.5,0.7,0.8c0.1,0.2,0.2,0.4,0.3,0.6
	c0.8,1.9,1.9,5,2.6,7c0.4,1.2,0.7,1.5,0.5,2.1c-0.4,0.6-1,1.1-1.6,1.4c-1,0.6-3,1.7-3.5,2.7c-0.6,1-1.1,2.1-1.6,3.2
	c-0.4,1.1-0.9,2.9-1.4,4.2s-0.8,2.7-1.6,4.8c-0.3,0.8-0.5,1.5-0.8,2.3c-0.6,1.8-1.1,3.3-2,4c-0.3,0.3-0.7,0.5-1.1,0.7
	c-0.5,0.1-1.1,0.1-1.6,0.1C389.2,241.3,386.4,241.2,383.7,241.2z M399.1,200.8c-0.4,0-0.7-0.1-1.1-0.2c-0.5-0.2-0.8-0.7-0.7-1.3
	c-0.1-0.9,0.2-1.2,0.4-1.3c0.4-0.2,0.9-0.2,1.3-0.1c0.3,0.1,0.5,0.1,0.8,0.2s1.7,0,1.8,1.1C401.5,200.3,399.5,200.8,399.1,200.8z"/>
<path d="M437.3,279.4c-1.3-1.1-3-1.8-4.8-1.9c-3.1-0.2-6.5,0.7-9.9,1.3c-2,0.4-4,0.7-5.9,0.9c-3.8,0.5-8.5,0.4-11.1-0.7
	c-1.3-0.4-2.5-1-3.6-1.7c-1.1-0.8-2.1-1.8-3.1-2.8c-0.7-0.7-1.3-1.6-1.9-2.4c-0.4-0.7-1.4-2.1-2.1-3.6c-1.3-2.9-2.8-5.3-4.8-4.4
	c-0.9,0.4-1.1,2.2-1,4.3c0,0.5,0.2,1.1,0.2,1.7c0.1,2.9,0.1,5.9,0.2,7c0.3,3.7,0.4,4.8,0.5,7.6c0,0.9,0.2,2,0.2,3.2
	c0.1,1.2,0.2,3,0.3,5c0.1,1.4-0.1,2.9,0,4.4c0,0.9,0.2,2.5,0.3,4.2c0.1,1.5,0,3.2,0.1,4.4s0.3,1.9,0.5,2c0.2,0.1,0.6,0,1.2-0.2
	c0.6-0.2,1.6-0.5,2.7-0.8c1.9-0.5,3.8-0.9,5.8-1.1c0.8-0.2,1.6-0.2,2.4-0.1c0.2,0,3,0.1,3.2,0.1c0.9,0.1,1.7,0.1,2.5,0.2
	c0.8,0.2,1.7,0.3,2.5,0.2c0.4-0.6,0.8-1.3,1.1-2c0.4-0.7,0.9-1.4,1.4-2c1.2-1.6,2.6-3.1,4.2-4.3c3.4-2.2,7.1-4,11-5.3
	c0.8-0.3,1.6-0.7,2.4-1.2c0.5-0.2,1-0.4,1.5-0.7c2.2-1.3,4.3-3,5.1-5.2C439.7,283.5,439.1,281,437.3,279.4z M435,284.9
	c-0.5,1.2-1.4,2.2-2.6,2.8c-1,0.7-2.1,1.4-3.3,1.9c-2.2,1-4.5,1.8-6.7,2.9c-2.6,1.3-5.1,2.9-7.5,4.7c-1.2,1.1-2.4,2.2-3.6,3.4
	c-0.8,0.5-0.8-0.6-0.9-1.7c0-0.4-0.1-0.8-0.1-1.2c0-1.6-0.3-3.3-0.3-4c0-1.8-0.2-3.6-0.3-5.3c0-0.6,0-1.2-0.1-1.7
	c-0.2-0.7-0.1-1.5,0.4-2.1c0.4-0.3,0.8-0.5,1.3-0.6c1.2-0.4,2.7-0.4,4.1-0.7c2.5-0.5,4.6-1.1,7.2-1.3c0.7-0.1,2-0.2,3.5-0.5
	c2-0.4,4-0.6,6-0.6c0.9,0.1,1.7,0.5,2.3,1.2C435.1,283,435.3,284,435,284.9L435,284.9z"/>
<path d="M423,286.1c-0.7-0.2-1.4-0.1-2,0.1c-0.6,0.1-1.1,0.2-1.7,0.2c-1,0.1-1.9,0.4-2.9,0.5c-0.5,0.1-0.9,0.3-1.3,0.4
	c-0.6,0.1-1.1,0.1-1.5,0.5c-0.2,0.3-0.2,0.7-0.1,1.1c0.1,0.6,0.1,1.2,0.1,1.8c0,0.5,0,1.1,0,1.4c0,0.2,0.1,0.3,0.2,0.5
	c0.3,0.2,1-0.3,1.9-0.8c1-0.6,2.1-1.1,3.2-1.5c0.8-0.3,1.9-0.8,2.8-1.2s1.9-0.6,2.1-0.9c0.2-0.3,0-0.6-0.1-1.1
	C423.5,286.7,423.3,286.3,423,286.1z"/>
<path d="M435.1,332.9c0,0.1,0,0.2,0.1,0.4c0.4,1.3,1.2,2.3,2.4,0.4c0.3-0.6,0.6-1.2,0.9-1.8v-0.1c0,0,0.8-1.5,1.6-3.3
	c0.6-1.3,1.2-2.7,1.8-4l0.5-1.1c0-0.1,0-0.1,0-0.2c0.3-1.1,0-2.3-0.9-3.2c-0.1-0.1-0.2-0.2-0.2-0.3l0,0c-0.5-0.6-2.1-3.2-2.6-3.8
	c-0.5-0.7-1-1.5-1.5-2.3c-0.6-0.9-1.1-1.8-1.7-2.7c-0.4-0.7-0.9-1.4-1.3-2.1c-0.6-0.9-1.3-2.3-1.6-2.6c-0.8-1.2-1.6-2.5-2.3-3.8
	c-0.4-0.8-0.9-1.6-1.3-2.3c-0.4-0.8-0.7-1.3-1-1.9c-0.2-0.4-0.3-0.7-0.6-0.8c-0.4-0.1-0.7,0-1,0.2c-0.6,0.3-1.4,0.7-2.1,1.2
	c-1.1,0.6-2.3,1.4-2.9,1.8c-2.2,1.5-4,3.4-5.3,5.7c-0.8,1.5-0.4,1.8,0.2,2.1c1.6,0.8,3.1,1.7,4.5,2.7c2.1,1.6,4.1,3.4,5.9,5.3
	c0.9,0.9,1.7,1.9,2.5,3c0.5,0.8,1.2,1.6,1.7,2.4c0.6,0.9,1.1,1.9,1.5,2.9c0.7,1.4,1.2,2.9,1.7,4.4
	C434.4,330.6,434.8,331.5,435.1,332.9z"/>
<path d="M426.5,351.2L426.5,351.2c1.6-2.2,3.2-4.5,4.8-6.8c0.8-1.7,1.7-4.7,0.6-9.3c-0.2-0.8-0.3-1.4-0.4-1.9
	c-0.2-0.7-0.4-1.5-0.6-2.2c-0.4-1.3-0.9-2.6-1.5-3.9c-0.8-1.8-1.8-3.6-2.9-5.2c-1-1.6-2.1-3-3.4-4.3c-1.3-1.4-2.8-2.7-4.4-3.7
	c-1.1-0.6-2.1-1.3-3.3-1.8c-0.6-0.3-1.9-0.9-3-1.4c-1.3-0.4-2.7-0.7-4-0.9c-2.2-0.3-4.4-0.4-6.6-0.2c-2.7,0.3-5.3,0.8-7.9,1.7
	c-1.9,0.6-3.7,1.4-5.3,2.5c-2.4,1.6-4.5,3.5-6.4,5.6c-0.3,0.4-0.5,0.8-0.8,1.2c-0.8,1-1.4,2-2.1,3c-0.4,0.7-0.9,1.5-1.3,2.2
	c-0.4,0.9-0.8,1.8-1.1,2.7c-0.3,0.9-0.6,1.9-0.8,2.8c-0.4,1.7-0.8,3.4-1,5.1c-0.4,3.8-0.3,7.6,0.5,11.3c0.5,1.9,1.1,3.8,2,5.6
	c0.8,1.7,1.7,3.4,2.8,4.9c1.2,1.5,2.5,2.9,3.9,4.2c0.7,0.7,1.4,1.4,2.2,2c1.3,0.9,2.6,1.8,4,2.5c1.8,0.9,3.7,1.6,5.7,2.2h0.1
	c3.1,1,6.4,1.5,9.6,1.6l0.3-0.3l0.7-0.5l0.2-0.1l9.8-7.3c0.7-0.9,0.3-0.8-0.1-0.6c-2.3,1.5-4.8,2.5-7.5,3.2c-3,0.7-6,0.8-9,0.2
	c-3.8-0.9-7.5-2.4-10.7-4.6c-3.8-2.5-6.7-6.3-8.2-10.6c-1.1-2.9-1.7-6-1.8-9c0.1-4.5,1.1-8.9,2.9-12.9c2-4.6,5.6-8.4,10-10.8
	c3.5-1.7,7.3-2.6,11.2-2.6c3,0,5.9,0.5,8.7,1.5c2.6,0.9,4.9,2.4,6.8,4.3c4.2,4.3,7.9,12.3,8.3,17.2c0.5,4.7-0.1,9.5-1.8,14
	C425.7,352.2,426.5,351.2,426.5,351.2z"/>
<path d="M278.1,164c0.9-1.6,2-3.2,3.1-4.6c1.8-2.3,4.2-4.1,7-5.1c0.7-0.3,2-0.7,2.8-0.9c12.2-3.9,29.4,8.9,29.8,9.2
	c0.4,0.3,0.7,0.5,1,0.3c0,0,1.9-2.5,1.6-3.1c-0.1-0.3-2.7-4.4-9.7-9.3c-4-2.8-8.4-5.9-15.2-5.9c-16.9,0.1-21,16.2-21.2,16.9
	C277.1,162.3,276.8,165.9,278.1,164z"/>
<path d="M354.7,138.8c-3.2,0.1-6.4,0.6-9.5,1.5c-14.8,4.6-20.7,14.9-20.7,14.9c-0.7,0.6,0.8,2,1.1,2.4c0.3,0.4,0.6,0.6,1.3,0
	c4.2-4.2,9.3-7.3,15-9.2c1.6-0.6,3.5-1,5.1-1.4c3.1-0.7,6.3-1,9.5-1.1c2-0.1,4,0,6,0.3c6.7,1.3,12.3,9.2,11.8,7.6
	c-0.9-3.6-2.7-6.9-5-9.8l0,0c-1.5-1.7-3.3-3.1-5.4-3.9C361,138.9,357.8,138.5,354.7,138.8z"/>
<path d="M383.2,252.8c-1.1-0.1-2,0.1-3,0c-1.4-0.2-4.2-3.8-5.3-5.8l0,0c-0.2,0-0.5,0-0.7,0.1c-0.4,0.1-0.7,0.2-1.1,0.2l-0.5,0.1
	l-0.3,0.2l-0.3,0.2c-0.4,0.3-0.7,0.6-0.9,1c-0.3,0.4-0.6,0.8-1,1.2l-0.1,0.1c-0.3,0.3-0.6,0.6-0.9,0.8c0.1,0.5,0.3,1.1,0.4,1.6
	l0.2,0.7c0,0,2.7,6.8,9.3,8.1c5.5,1.1,7.3-2.4,7.8-4c0.4-2-0.9-3.9-2.9-4.3C383.7,252.8,383.4,252.8,383.2,252.8z M380.8,258.2
	c-2.3,0-4.4-1.1-5.8-2.9c-0.6-0.8-3.8-5.7-2.4-6.3c1.1,0.1,1.9,2.3,2.3,3.2c1.2,2.6,2.7,4.1,5.7,4.1c0.8,0,3.3-0.4,3.3,0.6
	C383.9,258,381.6,258.3,380.8,258.2L380.8,258.2z"/>
<path d="M277.2,151.2c0.9-1.8,2-3.6,3.2-5.3l0.4-0.5c2.8-2.9,6.5-4.7,10.5-5h0.2c13.8,0.1,23.7,7.2,27.8,10.4c1.1,0.9,1.9,1.4,2,1.5
	c0.6,0.4,0.7,0,0.7,0s2.5-3.1,2.7-3.3c0.2-0.2,0.3-0.6,0.2-0.8c-2.3-3.3-5-6.1-8.2-8.5c-4.6-3.4-12.3-6.2-17.7-6
	c-4.9,0-9.7,1.2-14,3.6c-3,1.8-5.5,4.4-7.1,7.6l0,0c-0.6,1.2-1.1,2.5-1.4,3.8C276.1,149.5,275.9,153,277.2,151.2z"/>
<path d="M434.5,191.3c-15-19.4-35-34.5-57.7-43.7c1,2.3,1.6,4.6,2,7.1c66.8,29.5,96.9,107.6,67.4,174.3
	c-29.5,66.8-107.6,96.9-174.3,67.4c-47.8-21.2-78.7-68.5-78.7-120.9c0.4-52.6,31.1-100.2,78.8-122.3l0.1-1.6
	c0.1-1.4,0.3-2.9,0.9-4.2c0.1-0.3,0.2-0.6,0.3-0.9l0,0v-0.1c-21.2,9.3-39.9,23.4-54.5,41.4c-20.1,24.9-31.2,55.8-31.3,87.8
	c0,76.2,61.7,137.9,137.9,137.9s137.9-61.7,137.9-137.9C463.3,245,453.2,215.4,434.5,191.3z"/>
</svg>
